<svg xmlns="http://www.w3.org/2000/svg" viewBox="0 0 275 220" role="img">
<title>Barkado &amp; Co. — beagle active</title>
<desc>Clean vector recreation of the approved Barkado &amp; Co. reference pose. Theme colors: accent #A0522D, highlight #D4A24C.</desc>

<g shape-rendering="geometricPrecision">
<path d="M 28.50,197.00 L 50.00,201.50 L 121.00,205.00 L 219.00,205.00 L 246.00,201.50 L 232.50,201.00 L 221.00,193.50 L 212.50,199.00 L 205.50,199.50 L 194.50,191.50 L 124.50,189.50 L 122.50,194.50 L 124.50,196.00 L 115.50,199.00 L 101.00,198.00 L 94.00,190.00 L 48.50,192.50 Z" fill="#EED4B9"/><path d="M 178.00,130.50 L 177.50,143.50 L 174.50,147.00 L 173.50,153.00 L 169.00,158.00 L 170.50,161.50 L 169.50,162.50 L 169.00,160.50 L 166.00,161.50 L 164.50,160.00 L 165.50,167.00 L 167.50,168.00 L 170.50,165.50 L 184.50,172.50 L 192.00,174.50 L 195.50,173.00 L 199.00,187.50 L 205.50,189.50 L 206.50,185.50 L 208.50,187.00 L 208.50,191.00 L 213.50,189.50 L 212.50,186.00 L 214.00,185.00 L 216.50,187.50 L 216.00,181.50 L 218.50,181.50 L 209.50,164.00 L 189.00,155.00 L 184.00,155.00 L 188.50,150.00 L 191.50,149.00 L 191.00,142.50 L 193.00,142.00 L 197.00,145.00 L 196.00,139.00 L 192.50,135.00 L 191.50,138.00 L 184.00,131.00 Z" fill="#FCF8F1"/><path d="M 94.50,161.50 L 92.00,160.00 L 87.00,160.00 L 77.00,163.00 L 63.00,162.00 L 63.50,163.00 L 59.00,167.50 L 58.00,167.00 L 58.50,168.50 L 56.00,170.50 L 56.50,172.00 L 55.00,172.50 L 55.50,174.00 L 54.00,174.50 L 51.00,180.50 L 43.50,185.00 L 37.00,186.00 L 39.00,187.00 L 38.50,191.00 L 40.00,192.50 L 36.50,194.00 L 60.00,191.00 L 93.00,189.50 L 93.50,187.00 L 91.50,179.00 L 90.50,167.00 Z" fill="#D4B79C"/><path d="M 200.50,36.00 L 193.00,42.50 L 188.50,59.50 L 186.50,48.00 L 181.50,51.00 L 182.00,44.50 L 167.00,61.50 L 164.00,60.50 L 158.00,67.00 L 158.00,72.50 L 162.00,67.50 L 166.50,75.50 L 169.00,76.50 L 172.00,74.00 L 176.50,79.00 L 175.00,83.50 L 176.50,89.00 L 185.00,86.50 L 183.00,89.50 L 188.50,85.00 L 187.00,80.00 L 191.50,73.50 L 192.50,50.00 L 199.00,40.50 L 196.00,52.50 L 197.00,79.50 L 195.00,83.50 L 196.50,90.50 L 199.50,93.50 L 198.00,77.50 L 202.50,71.50 L 202.00,65.00 L 203.50,64.50 L 200.00,54.00 L 202.00,48.00 L 200.00,46.00 L 203.00,39.50 Z" fill="#C26110"/><path d="M 105.50,89.50 L 98.00,91.00 L 86.50,98.50 L 84.50,98.00 L 82.50,100.00 L 83.50,101.00 L 83.00,103.00 L 77.50,109.00 L 75.00,109.50 L 73.00,112.00 L 69.00,122.50 L 69.00,125.50 L 70.00,126.00 L 68.50,128.50 L 70.00,129.50 L 68.00,130.00 L 68.00,138.50 L 70.50,139.00 L 69.00,141.50 L 70.50,143.50 L 78.50,142.50 L 79.50,145.00 L 82.50,144.00 L 85.50,145.00 L 88.50,143.00 L 92.00,142.50 L 90.50,141.50 L 87.00,143.00 L 86.50,141.50 L 93.50,125.50 L 93.50,117.50 L 92.50,115.50 L 96.50,110.50 L 96.50,109.00 L 94.00,107.50 L 95.50,98.50 L 101.50,94.50 L 101.00,92.50 Z" fill="#E78020"/><path d="M 132.50,89.50 L 131.00,90.50 L 121.00,90.00 L 114.50,92.50 L 117.00,94.50 L 113.00,95.00 L 114.00,96.50 L 110.00,98.00 L 109.50,101.50 L 106.00,103.50 L 108.00,106.50 L 106.00,108.00 L 106.50,109.50 L 103.50,115.50 L 100.00,118.50 L 99.00,127.00 L 100.00,134.00 L 101.00,134.50 L 107.50,128.00 L 109.00,130.50 L 113.00,131.00 L 115.00,134.50 L 116.00,133.00 L 120.00,132.50 L 122.50,136.00 L 121.00,140.50 L 127.00,144.50 L 128.50,144.00 L 128.00,133.50 L 126.00,130.00 L 126.50,126.00 L 122.50,121.00 L 122.50,116.50 L 125.00,106.00 L 128.00,100.00 L 126.50,101.00 L 123.50,98.00 L 124.50,97.00 L 129.00,98.00 L 135.50,91.00 L 134.50,91.50 Z" fill="#3A2F2A"/><path d="M 224.00,28.00 L 221.00,30.00 L 228.50,48.00 L 227.00,62.00 L 216.50,71.50 L 206.50,74.50 L 201.00,85.50 L 206.00,92.00 L 217.00,100.50 L 227.50,105.50 L 217.50,97.50 L 210.50,84.00 L 209.00,86.00 L 207.00,85.00 L 207.00,81.00 L 210.50,77.50 L 214.50,77.50 L 215.00,82.50 L 216.50,83.50 L 217.00,82.00 L 222.00,88.50 L 226.50,89.50 L 225.00,88.50 L 231.50,87.50 L 235.00,84.50 L 236.00,79.50 L 231.50,73.50 L 232.00,68.00 L 239.00,63.50 L 248.00,63.50 L 242.50,61.50 L 233.50,61.50 L 239.50,60.00 L 234.50,47.00 L 234.50,36.50 L 229.50,30.00 Z" fill="#FCF8F1"/><path d="M 97.00,144.00 L 94.50,142.00 L 90.00,145.50 L 74.00,147.00 L 70.50,146.00 L 67.50,143.00 L 66.50,138.00 L 61.50,142.00 L 59.00,142.00 L 56.50,140.00 L 53.00,140.50 L 49.50,144.00 L 39.00,160.50 L 31.50,165.00 L 29.00,169.00 L 29.00,172.00 L 35.50,174.50 L 38.50,171.50 L 39.50,174.50 L 45.50,170.50 L 52.00,163.00 L 52.50,164.00 L 54.50,163.00 L 56.00,160.50 L 55.00,156.00 L 56.50,154.50 L 63.50,156.00 L 78.50,156.00 L 90.50,150.00 Z" fill="#FCF8F1"/><path d="M 193.50,188.00 L 192.00,188.50 L 191.50,180.50 L 180.00,180.00 L 175.50,177.50 L 175.50,176.00 L 170.00,175.00 L 164.50,171.00 L 163.50,173.50 L 159.50,177.00 L 145.50,183.00 L 130.00,183.00 L 127.00,180.50 L 122.00,179.50 L 115.00,175.00 L 115.00,179.00 L 122.00,183.00 L 124.00,189.00 L 167.50,190.00 L 193.00,191.50 Z" fill="#D4B79C"/><path d="M 115.00,172.00 L 116.00,175.50 L 119.50,176.50 L 122.00,179.00 L 127.00,180.00 L 130.00,182.50 L 138.50,183.00 L 145.50,182.50 L 151.50,180.50 L 155.00,177.50 L 159.50,176.50 L 163.00,173.50 L 164.00,170.50 L 165.00,171.50 L 165.50,171.00 L 163.50,169.00 L 162.00,169.00 L 162.50,167.00 L 161.00,166.00 L 161.50,165.00 L 159.00,165.00 L 157.50,164.00 L 151.50,164.50 L 145.00,163.00 L 146.00,164.00 L 144.50,165.00 L 138.00,165.50 L 130.00,161.50 L 124.50,167.00 L 115.50,171.00 Z" fill="#B69478"/><path d="M 194.00,70.50 L 191.50,87.50 L 184.00,96.50 L 174.00,98.50 L 165.00,88.00 L 165.00,92.00 L 157.00,91.00 L 163.00,93.00 L 153.00,107.50 L 150.00,123.50 L 144.50,125.50 L 148.50,113.00 L 141.50,128.50 L 131.50,127.50 L 141.00,131.00 L 143.50,149.50 L 144.50,145.50 L 152.50,162.00 L 139.00,157.00 L 130.50,142.50 L 129.50,122.50 L 134.50,120.00 L 129.50,117.50 L 127.50,124.00 L 123.50,118.50 L 135.50,92.00 L 131.00,95.50 L 123.00,121.00 L 135.00,157.50 L 157.00,162.50 L 147.00,149.50 L 150.00,143.50 L 145.50,131.00 L 154.50,117.00 L 155.50,107.50 L 166.50,98.00 L 176.00,118.50 L 168.50,96.50 L 178.00,100.00 L 184.00,109.00 L 179.00,100.00 L 192.50,89.00 Z" fill="#1A100C"/><path d="M 125.50,160.50 L 124.50,161.00 L 119.50,158.50 L 118.50,160.00 L 108.00,160.00 L 103.00,166.00 L 100.00,167.00 L 98.50,164.00 L 94.00,167.00 L 95.00,176.50 L 97.50,177.50 L 97.00,179.50 L 96.00,178.50 L 97.00,188.00 L 100.50,193.50 L 107.00,195.50 L 109.50,193.50 L 109.00,192.00 L 103.00,191.50 L 101.00,189.50 L 101.00,184.00 L 102.00,186.50 L 106.00,184.00 L 107.00,185.00 L 106.50,188.00 L 110.00,187.50 L 113.00,193.50 L 117.50,192.50 L 118.00,190.00 L 114.50,186.50 L 117.00,185.00 L 111.50,183.00 L 113.00,182.00 L 111.00,176.00 L 111.50,171.50 L 110.50,172.00 L 110.00,170.00 L 111.00,168.50 L 116.50,167.50 L 122.50,164.50 Z" fill="#EED4B9"/><path d="M 219.50,158.00 L 219.00,159.50 L 221.50,160.00 L 219.00,164.00 L 220.50,172.50 L 229.50,190.00 L 231.50,192.00 L 237.50,193.00 L 242.50,191.50 L 242.50,189.00 L 238.50,186.50 L 239.50,185.00 L 242.00,185.50 L 246.00,190.50 L 250.50,188.50 L 250.50,185.50 L 247.50,182.50 L 249.00,181.00 L 253.50,185.00 L 253.00,183.00 L 250.50,180.50 L 247.50,179.50 L 238.00,180.50 L 237.50,178.50 L 239.00,178.00 L 239.00,177.00 L 234.50,171.50 L 226.50,158.00 L 224.50,156.00 Z" fill="#FCF8F1"/><path d="M 59.00,66.00 L 58.50,70.50 L 61.50,77.00 L 58.00,77.00 L 59.00,78.50 L 58.00,80.50 L 53.50,78.00 L 54.00,80.00 L 58.50,84.00 L 50.00,84.00 L 51.00,88.00 L 59.00,94.50 L 56.00,96.50 L 53.50,96.50 L 53.50,95.00 L 52.50,95.00 L 53.00,97.00 L 56.00,97.00 L 56.50,98.00 L 57.50,97.00 L 68.50,97.50 L 73.00,101.50 L 76.50,98.00 L 79.50,97.50 L 80.50,98.50 L 86.50,94.00 L 87.00,92.00 L 88.00,93.00 L 89.00,92.50 L 88.00,91.50 L 85.00,92.50 L 85.50,91.00 L 74.50,85.50 L 66.00,76.50 L 63.00,71.00 L 60.00,69.00 L 60.00,66.00 Z" fill="#3A2F2A"/><path d="M 217.50,28.50 L 209.00,30.00 L 200.00,34.50 L 201.00,36.50 L 203.50,37.50 L 204.00,39.50 L 201.00,44.50 L 201.00,46.50 L 202.50,48.00 L 200.50,52.00 L 203.00,62.00 L 204.50,62.00 L 204.50,60.00 L 207.00,55.00 L 211.00,51.00 L 217.00,49.50 L 214.50,48.00 L 211.50,48.00 L 210.50,46.00 L 212.00,44.50 L 219.50,44.50 L 221.00,42.50 L 223.00,44.00 L 224.50,47.50 L 225.00,51.50 L 224.00,57.50 L 225.00,60.50 L 224.00,62.50 L 225.50,61.00 L 227.00,54.50 L 227.00,47.50 L 223.50,37.50 Z" fill="#E78020"/><path d="M 166.50,101.50 L 164.00,102.50 L 162.50,102.00 L 158.00,104.50 L 155.00,109.50 L 155.00,111.00 L 156.50,110.50 L 157.00,111.50 L 154.50,118.00 L 152.50,119.50 L 151.50,125.00 L 146.00,131.00 L 146.00,136.00 L 149.00,142.50 L 150.50,143.50 L 150.00,146.00 L 153.50,145.50 L 154.00,141.00 L 153.00,139.50 L 154.50,139.50 L 155.50,136.00 L 157.50,135.50 L 159.50,133.00 L 161.00,123.50 L 164.00,120.50 L 163.50,117.00 L 164.50,114.50 L 166.50,112.50 L 172.00,118.50 L 174.00,118.50 L 174.00,117.00 L 169.50,111.50 Z" fill="#3A2F2A"/><path d="M 161.00,68.00 L 160.00,69.50 L 160.00,72.50 L 157.50,73.00 L 158.50,78.50 L 162.50,84.50 L 166.00,87.50 L 167.50,91.50 L 172.00,96.50 L 174.00,97.50 L 178.50,97.50 L 181.50,96.50 L 188.00,91.50 L 191.50,84.00 L 192.00,74.00 L 190.00,75.00 L 187.50,80.00 L 187.50,81.50 L 189.00,82.00 L 189.00,85.00 L 183.00,90.00 L 181.50,89.50 L 182.00,88.50 L 176.50,89.50 L 174.50,87.50 L 174.50,83.50 L 176.00,79.00 L 173.50,78.00 L 172.00,75.00 L 169.00,77.00 L 167.00,76.50 L 165.50,74.50 L 165.00,71.00 L 162.00,68.00 Z" fill="#944713"/><path d="M 177.00,122.50 L 170.50,121.50 L 168.00,122.50 L 165.00,128.00 L 164.50,134.50 L 162.50,138.00 L 162.50,139.00 L 164.00,139.50 L 163.50,141.50 L 162.50,142.50 L 161.50,140.50 L 161.00,141.50 L 162.00,144.00 L 161.50,144.50 L 159.00,144.00 L 160.00,148.50 L 163.00,154.00 L 163.50,157.00 L 165.00,158.00 L 166.50,158.00 L 169.50,154.00 L 169.50,151.50 L 170.50,150.00 L 171.50,145.00 L 174.50,141.50 L 175.50,141.50 L 175.00,134.50 L 176.00,131.00 L 175.00,128.50 L 176.00,127.50 L 177.50,127.50 L 179.00,129.00 L 180.50,129.00 L 181.00,127.00 L 179.00,125.50 Z" fill="#E78020"/><path d="M 201.00,86.00 L 201.00,94.50 L 205.50,99.50 L 204.00,100.50 L 197.00,96.50 L 194.50,97.50 L 193.50,106.50 L 191.00,108.00 L 188.50,106.50 L 188.50,108.50 L 190.00,110.00 L 191.00,108.50 L 195.00,109.00 L 194.00,105.50 L 195.00,98.50 L 200.50,105.50 L 203.50,106.00 L 209.50,113.50 L 211.50,117.50 L 210.00,120.50 L 213.50,121.00 L 214.50,122.50 L 218.50,117.50 L 221.50,116.50 L 222.50,118.00 L 225.00,111.50 L 223.50,113.00 L 223.00,112.00 L 218.00,113.00 L 207.50,103.50 L 211.50,101.00 L 216.00,103.50 L 217.50,102.00 L 223.00,107.50 L 229.00,107.00 L 229.00,105.50 L 226.00,106.00 L 217.00,101.00 L 206.00,92.50 Z" fill="#EED4B9"/><path d="M 67.00,15.50 L 60.00,16.00 L 52.50,20.00 L 46.50,27.00 L 43.00,36.00 L 42.00,35.50 L 42.50,28.50 L 40.00,33.50 L 39.00,38.50 L 37.00,41.50 L 37.00,47.50 L 38.50,43.00 L 43.50,46.00 L 45.50,39.50 L 49.00,36.50 L 50.00,37.00 L 49.00,39.50 L 50.00,42.50 L 52.50,39.50 L 55.50,38.00 L 56.50,38.50 L 56.50,42.50 L 57.50,35.00 L 59.50,30.50 L 59.00,30.00 L 56.50,33.00 L 56.00,31.00 L 59.00,24.00 L 66.50,17.50 Z" fill="#FCF8F1"/><path d="M 130.00,89.50 L 121.50,88.00 L 110.50,88.00 L 103.00,95.50 L 100.50,96.50 L 101.50,99.00 L 99.00,102.00 L 98.50,105.00 L 100.00,108.50 L 97.50,116.50 L 97.50,127.50 L 94.00,132.00 L 93.00,135.00 L 94.00,137.50 L 95.50,138.00 L 98.00,135.50 L 101.00,136.50 L 105.00,132.00 L 108.00,130.50 L 108.00,129.00 L 107.00,129.00 L 101.00,135.00 L 99.50,134.00 L 98.50,127.00 L 99.50,118.50 L 103.00,115.50 L 105.50,110.50 L 105.50,108.00 L 107.00,107.00 L 107.00,105.00 L 105.50,103.50 L 109.00,101.50 L 108.50,99.00 L 113.00,96.50 L 112.50,94.50 L 116.00,94.50 L 114.00,92.00 L 118.00,91.50 L 121.00,89.50 Z" fill="#623E29"/><path d="M 130.00,127.00 L 129.50,128.00 L 130.00,135.50 L 130.50,135.50 L 130.50,133.50 L 131.00,133.00 L 131.50,133.50 L 131.50,136.50 L 130.50,137.00 L 130.50,140.50 L 134.50,150.50 L 139.00,156.50 L 142.00,158.50 L 148.50,161.00 L 152.50,161.50 L 148.00,155.00 L 145.00,147.00 L 144.50,148.50 L 146.00,152.00 L 145.50,153.50 L 143.00,149.50 L 141.00,142.00 L 140.50,131.00 L 139.50,130.00 L 131.50,129.00 L 130.50,128.00 L 131.00,127.00 Z" fill="#3A2F2A"/><path d="M 105.00,138.50 L 100.00,140.50 L 99.00,143.50 L 97.00,143.00 L 96.00,140.50 L 96.00,142.50 L 98.00,144.00 L 90.50,150.50 L 78.50,156.50 L 63.50,156.50 L 56.50,155.00 L 55.50,157.00 L 57.00,159.00 L 53.50,164.50 L 51.50,164.00 L 45.50,171.00 L 38.00,176.50 L 32.00,178.50 L 32.00,180.00 L 33.50,181.00 L 39.50,180.50 L 44.50,177.00 L 45.00,179.00 L 43.00,180.50 L 43.50,181.50 L 49.50,176.50 L 53.50,168.50 L 59.00,161.50 L 58.00,160.00 L 59.00,158.50 L 76.00,159.50 L 84.00,157.50 L 94.00,151.50 Z" fill="#EED4B9"/><path d="M 55.00,59.50 L 52.50,61.00 L 52.00,65.00 L 49.50,66.00 L 50.00,68.50 L 49.00,69.50 L 44.50,70.00 L 46.00,73.00 L 45.50,73.50 L 43.00,72.00 L 43.50,77.00 L 42.50,79.50 L 41.00,80.50 L 45.00,84.00 L 44.50,85.50 L 48.50,87.50 L 48.00,88.50 L 45.00,88.50 L 46.00,90.00 L 47.00,89.00 L 49.00,89.00 L 49.50,91.00 L 53.50,91.50 L 56.50,94.00 L 54.00,95.00 L 58.00,95.00 L 58.00,93.50 L 53.50,91.00 L 49.50,86.50 L 49.50,84.00 L 50.50,83.00 L 58.00,84.00 L 53.50,80.00 L 53.50,77.50 L 58.50,79.50 L 58.50,78.50 L 57.00,77.50 L 58.00,76.50 L 61.00,77.00 L 58.00,70.50 L 58.00,67.00 L 59.50,65.50 L 59.00,60.50 L 57.50,61.00 Z" fill="#623E29"/><path d="M 160.50,93.50 L 154.00,99.00 L 148.00,110.00 L 146.00,109.00 L 146.00,104.50 L 149.00,102.50 L 148.00,101.00 L 149.50,101.00 L 154.50,94.00 L 145.00,92.50 L 146.00,90.50 L 141.00,92.50 L 138.00,95.50 L 140.50,94.00 L 145.00,95.50 L 144.50,98.50 L 138.00,100.00 L 136.00,102.00 L 137.00,97.00 L 133.00,104.50 L 132.50,102.50 L 135.00,97.00 L 132.00,101.00 L 131.50,104.50 L 128.50,103.00 L 129.00,107.00 L 131.00,105.00 L 145.00,107.00 L 141.50,121.00 L 142.50,122.50 L 145.50,123.00 L 147.00,121.50 L 148.00,112.50 L 150.50,115.00 L 152.50,107.50 Z" fill="#3A2F2A"/><path d="M 53.00,42.00 L 51.00,44.00 L 49.50,44.50 L 48.50,43.50 L 48.50,42.50 L 47.00,41.50 L 46.00,43.00 L 45.50,49.00 L 44.00,50.00 L 41.00,47.00 L 41.00,48.00 L 38.50,50.50 L 38.50,52.00 L 37.00,54.00 L 36.50,56.50 L 35.00,55.50 L 34.00,50.50 L 33.50,50.50 L 34.00,59.50 L 37.00,66.50 L 39.50,66.50 L 40.00,63.50 L 41.50,62.50 L 43.00,59.00 L 45.00,61.00 L 46.50,59.00 L 48.50,59.00 L 48.50,54.50 L 49.00,54.00 L 53.50,55.50 L 53.50,53.50 L 55.00,52.00 L 56.50,52.50 L 56.50,47.00 L 55.00,46.00 L 54.50,44.00 L 53.00,43.50 Z" fill="#A0522D"/><path d="M 194.50,99.50 L 195.00,101.50 L 194.50,105.50 L 195.50,107.50 L 195.50,109.00 L 195.00,109.50 L 191.50,109.00 L 191.00,114.00 L 199.00,119.50 L 200.50,119.50 L 205.00,121.50 L 211.00,121.50 L 211.00,121.00 L 209.50,120.50 L 211.00,117.50 L 209.00,113.50 L 205.50,109.00 L 204.00,108.00 L 203.50,106.50 L 200.50,106.00 L 198.00,103.50 L 197.50,102.00 Z" fill="#FCF8F1"/><path d="M 218.50,151.00 L 218.50,153.00 L 217.50,154.00 L 216.50,153.00 L 214.50,155.00 L 215.00,156.00 L 212.50,159.00 L 212.00,162.50 L 215.00,166.50 L 216.00,170.50 L 217.50,171.50 L 217.00,174.00 L 218.00,176.00 L 222.00,180.50 L 223.00,186.00 L 228.00,193.50 L 231.50,196.50 L 236.00,197.50 L 238.50,193.00 L 233.00,193.00 L 229.00,190.00 L 220.00,172.50 L 218.50,164.00 L 221.00,160.00 L 219.50,160.00 L 219.00,161.00 L 218.50,159.00 L 219.50,157.50 L 223.50,156.50 L 224.00,155.00 L 221.00,151.50 L 219.00,152.50 Z" fill="#EED4B9"/><path d="M 176.50,110.50 L 176.00,116.00 L 180.00,120.50 L 181.50,120.00 L 183.00,123.00 L 187.00,126.50 L 188.50,126.50 L 189.50,125.50 L 190.50,127.50 L 192.50,126.00 L 193.00,127.00 L 191.50,128.50 L 197.00,131.50 L 200.50,132.00 L 199.50,130.50 L 200.50,127.00 L 202.00,125.50 L 205.00,125.00 L 205.00,124.50 L 202.50,124.00 L 201.50,125.00 L 200.00,125.00 L 198.00,123.50 L 195.50,124.00 L 193.00,119.50 L 190.50,119.50 L 190.50,121.00 L 189.00,122.50 L 188.00,122.50 L 187.50,120.00 L 188.50,118.00 L 184.00,114.50 L 180.00,109.50 L 180.50,108.50 L 181.50,108.50 L 182.00,109.50 L 182.50,109.00 L 180.50,107.50 L 180.00,108.50 L 178.50,108.50 Z" fill="#9D6145"/><path d="M 230.00,97.00 L 231.00,98.00 L 231.50,103.00 L 232.50,106.00 L 236.50,110.00 L 239.00,111.00 L 242.00,111.00 L 244.50,110.00 L 247.00,107.50 L 248.00,105.00 L 248.00,100.50 L 246.50,97.50 L 244.00,95.50 L 242.00,96.00 L 240.50,95.50 L 242.50,100.50 L 241.50,102.00 L 240.00,99.00 L 238.00,97.00 Z" fill="#F4986B"/><path d="M 99.00,165.50 L 100.00,166.00 L 103.00,165.50 L 108.00,159.50 L 110.50,159.00 L 118.50,159.50 L 118.50,158.50 L 119.50,158.00 L 121.50,159.50 L 122.50,159.00 L 125.00,160.00 L 126.50,158.50 L 127.50,158.50 L 128.50,156.50 L 127.50,156.00 L 125.00,156.50 L 117.50,153.00 L 113.50,153.00 L 113.00,154.00 L 111.50,154.00 L 111.00,153.00 L 109.00,152.00 L 106.50,152.00 L 102.00,149.50 L 100.50,151.00 L 101.50,156.00 L 101.50,158.50 L 101.00,159.00 L 101.50,161.50 L 100.00,162.00 L 100.50,163.00 L 99.50,163.50 Z" fill="#D4B79C"/><path d="M 234.50,29.00 L 234.00,30.50 L 235.50,32.50 L 235.00,34.50 L 236.00,36.00 L 236.00,47.00 L 237.00,45.50 L 237.50,48.50 L 236.50,49.50 L 237.50,53.00 L 239.50,56.00 L 239.50,53.00 L 238.50,51.00 L 238.50,44.50 L 238.00,44.00 L 239.50,41.00 L 240.50,42.50 L 243.00,42.50 L 244.00,41.50 L 245.00,43.00 L 242.00,48.50 L 246.00,47.00 L 248.00,47.50 L 250.00,49.50 L 251.00,49.50 L 251.50,45.50 L 248.00,38.50 L 244.00,33.50 L 237.00,29.50 Z" fill="#E78020"/><path d="M 233.00,69.50 L 233.00,73.50 L 237.50,78.50 L 243.50,81.00 L 247.50,79.50 L 251.50,75.50 L 252.50,73.00 L 252.50,69.50 L 252.00,68.00 L 250.50,66.50 L 250.00,67.00 L 251.50,68.50 L 251.00,70.00 L 247.00,70.00 L 245.50,69.00 L 244.00,69.00 L 235.00,72.00 L 233.50,70.50 L 234.50,68.50 L 237.00,66.00 L 235.00,67.00 Z" fill="#1A100C"/><path d="M 196.00,35.50 L 193.00,35.50 L 192.50,36.50 L 190.00,36.00 L 185.00,39.50 L 180.50,44.50 L 181.00,45.00 L 183.00,43.00 L 183.50,43.50 L 182.00,46.00 L 182.00,51.00 L 185.00,47.50 L 187.00,48.00 L 186.50,50.50 L 188.50,53.50 L 188.00,54.50 L 188.50,58.50 L 189.00,58.50 L 190.00,56.00 L 190.50,48.00 L 191.50,44.50 L 193.50,41.00 L 195.50,39.00 L 196.50,39.00 L 197.00,37.50 L 198.50,37.50 Z" fill="#E78020"/><path d="M 132.00,106.50 L 130.50,108.50 L 129.50,108.50 L 129.00,110.00 L 127.50,110.50 L 126.50,113.00 L 125.50,112.00 L 125.50,113.50 L 126.50,114.00 L 126.50,115.00 L 126.00,115.50 L 125.00,114.50 L 124.00,119.50 L 125.50,122.00 L 128.00,123.50 L 128.00,120.00 L 129.00,119.00 L 129.00,117.50 L 130.50,116.50 L 131.50,116.50 L 133.00,118.00 L 133.00,119.00 L 135.00,120.00 L 136.50,120.00 L 137.00,121.00 L 136.00,122.00 L 137.50,122.00 L 138.00,121.00 L 139.50,121.00 L 140.50,119.50 L 141.00,112.50 L 137.00,112.50 L 132.00,111.00 L 131.50,110.50 Z" fill="#3A2F2A"/><path d="M 214.00,51.00 L 211.00,52.50 L 209.50,54.00 L 208.00,56.50 L 208.00,58.50 L 209.00,59.00 L 209.00,61.50 L 211.50,62.00 L 212.50,63.00 L 216.50,63.00 L 220.00,59.50 L 220.50,56.50 L 218.50,52.00 L 216.50,51.00 Z" fill="#1A100C"/><path d="M 55.50,54.50 L 54.50,55.00 L 54.50,57.00 L 53.50,58.00 L 51.00,58.00 L 50.50,59.00 L 51.00,62.50 L 50.50,63.00 L 47.00,61.50 L 47.00,62.50 L 46.00,63.50 L 45.00,63.50 L 43.50,61.50 L 43.50,63.00 L 45.50,65.00 L 45.50,66.00 L 43.50,66.50 L 42.00,65.00 L 41.00,65.00 L 41.00,70.00 L 41.50,71.00 L 40.50,72.50 L 38.00,72.50 L 38.00,74.00 L 39.50,76.50 L 39.00,77.50 L 41.00,79.50 L 42.00,79.50 L 42.00,78.00 L 43.00,77.00 L 42.50,71.50 L 43.00,71.00 L 45.00,72.50 L 44.00,70.50 L 45.00,69.00 L 49.00,69.00 L 49.00,66.00 L 50.00,65.00 L 50.50,65.50 L 51.50,65.00 L 51.50,62.00 L 53.00,60.00 L 55.50,58.50 L 58.00,60.50 L 58.00,57.50 L 55.50,55.50 Z" fill="#944713"/><path d="M 206.00,64.00 L 202.50,65.00 L 203.50,67.50 L 203.50,69.00 L 202.50,69.50 L 203.00,71.50 L 200.00,74.50 L 198.50,77.50 L 199.00,85.50 L 199.50,85.50 L 199.50,83.50 L 201.00,81.50 L 201.00,80.00 L 202.50,77.00 L 206.50,73.00 L 209.00,72.00 L 213.50,71.50 L 212.50,70.50 L 214.00,70.00 L 214.00,69.50 L 209.50,68.50 Z" fill="#E78020"/><path d="M 211.50,79.50 L 211.00,81.00 L 214.00,89.00 L 218.00,96.00 L 224.00,102.00 L 229.50,103.50 L 227.50,101.00 L 225.00,100.00 L 225.00,98.00 L 221.00,92.50 L 221.50,90.00 L 218.50,88.00 L 212.50,81.50 L 212.00,79.50 Z" fill="#1A100C"/><path d="M 212.00,45.00 L 211.00,46.00 L 211.50,47.50 L 214.50,47.50 L 217.00,48.50 L 218.00,49.50 L 217.50,50.50 L 219.00,51.00 L 221.00,53.50 L 222.00,56.50 L 222.00,59.50 L 221.00,61.50 L 222.00,62.00 L 222.50,59.50 L 223.50,60.00 L 223.50,61.50 L 224.00,61.50 L 224.50,59.50 L 223.50,57.50 L 223.50,55.00 L 224.50,50.00 L 222.50,44.00 L 221.00,43.00 L 219.50,45.00 Z" fill="#C26110"/><path d="M 168.00,167.50 L 168.50,168.50 L 171.00,169.50 L 170.50,171.50 L 173.00,172.50 L 175.00,172.50 L 177.00,173.50 L 183.50,174.50 L 188.50,176.00 L 193.00,175.50 L 196.00,179.50 L 196.00,181.00 L 197.50,180.50 L 196.50,175.00 L 195.50,173.50 L 192.00,175.00 L 191.00,174.00 L 188.50,174.00 L 186.50,173.00 L 181.50,172.00 L 172.00,167.50 L 170.50,166.00 Z" fill="#EED4B9"/><path d="M 100.00,96.50 L 98.00,97.50 L 98.00,98.00 L 99.50,97.50 L 100.00,98.50 L 96.00,104.00 L 96.00,107.00 L 98.00,107.50 L 98.50,109.00 L 95.50,114.00 L 96.00,115.50 L 95.00,117.50 L 94.50,127.00 L 92.50,130.00 L 90.50,135.50 L 91.50,137.00 L 91.50,138.50 L 93.50,139.50 L 94.50,139.50 L 94.50,138.00 L 93.00,137.00 L 92.50,135.00 L 94.00,131.00 L 95.50,130.00 L 97.00,127.50 L 97.00,124.00 L 97.50,123.50 L 97.00,116.50 L 99.00,110.00 L 99.00,107.50 L 98.00,106.50 L 98.50,102.00 L 101.00,99.00 Z" fill="#944713"/><path d="M 170.00,100.00 L 170.00,103.50 L 171.00,105.00 L 171.00,107.00 L 172.00,109.50 L 173.00,110.50 L 174.00,113.50 L 176.00,114.50 L 175.50,111.50 L 178.50,108.00 L 180.00,108.00 L 180.00,106.00 L 177.00,100.50 L 173.50,101.00 L 171.50,100.00 Z" fill="#944713"/><path d="M 244.50,48.50 L 243.50,49.50 L 245.50,49.50 L 246.50,50.50 L 246.50,52.00 L 245.00,53.50 L 243.50,53.50 L 242.00,51.50 L 242.00,57.00 L 245.00,60.50 L 248.00,60.00 L 249.50,58.50 L 250.50,52.50 L 248.00,49.00 Z" fill="#1A100C"/><path d="M 253.50,67.50 L 253.00,68.00 L 254.00,69.00 L 254.00,73.50 L 252.50,76.50 L 250.00,79.00 L 250.00,82.50 L 252.00,84.00 L 253.50,84.00 L 255.00,82.50 L 256.50,79.50 L 257.50,79.00 L 257.50,74.50 L 256.50,71.50 Z" fill="#FCF8F1"/><path d="M 225.50,119.00 L 223.50,121.00 L 220.00,122.50 L 219.00,124.50 L 217.50,124.00 L 218.50,125.00 L 216.50,127.00 L 216.00,133.50 L 218.00,133.00 L 224.00,126.50 L 224.50,124.00 L 225.50,122.50 Z" fill="#944713"/><path d="M 195.50,137.50 L 197.50,141.00 L 197.00,146.00 L 198.00,148.50 L 195.00,151.00 L 195.00,154.50 L 198.50,156.00 L 199.00,154.50 L 201.50,153.50 L 200.50,151.00 L 202.50,148.50 L 202.50,147.00 L 201.50,145.50 L 199.50,144.50 L 199.50,143.50 L 198.50,144.00 L 198.00,143.50 L 198.00,142.50 L 199.00,142.00 L 199.00,138.50 L 197.00,139.00 Z" fill="#EED4B9"/><path d="M 192.50,91.00 L 191.50,91.00 L 191.00,92.00 L 191.50,94.50 L 190.00,97.00 L 187.00,97.00 L 186.50,98.00 L 180.50,100.50 L 182.00,104.50 L 185.00,108.50 L 185.50,108.50 L 185.50,103.50 L 184.50,102.00 L 186.50,100.00 L 188.50,100.50 L 189.50,101.50 L 190.50,101.50 L 191.50,100.50 L 191.50,97.00 L 192.00,95.50 L 193.50,94.00 L 193.00,93.00 L 193.50,92.00 Z" fill="#C26110"/><path d="M 59.50,58.50 L 59.50,61.00 L 60.50,63.00 L 60.50,69.00 L 63.50,71.00 L 65.00,74.50 L 68.50,79.00 L 74.50,85.00 L 79.00,88.00 L 89.50,92.00 L 88.50,93.50 L 87.50,93.50 L 84.50,96.00 L 92.50,92.00 L 84.50,89.50 L 75.50,84.50 L 68.00,77.00 L 62.00,66.00 Z" fill="#1A100C"/><path d="M 168.00,114.00 L 166.00,113.50 L 165.00,114.50 L 164.00,117.00 L 164.50,120.50 L 161.50,123.50 L 161.50,126.50 L 160.00,133.00 L 157.50,136.00 L 156.00,136.00 L 155.50,137.50 L 159.00,137.00 L 161.50,133.50 L 162.50,129.00 L 165.50,122.50 L 165.00,118.00 L 166.50,116.00 L 172.50,119.50 L 173.00,120.50 L 174.50,120.50 L 174.50,119.00 L 173.00,120.00 L 169.50,116.50 Z" fill="#623E29"/><path d="M 130.00,160.00 L 132.50,162.50 L 133.50,162.50 L 138.00,165.00 L 144.50,164.50 L 144.50,163.50 L 143.50,163.00 L 144.50,162.00 L 140.00,161.00 L 139.00,160.00 L 135.00,159.00 L 132.50,157.50 L 131.50,157.50 Z" fill="#9D6145"/><path d="M 131.00,121.00 L 132.00,122.00 L 131.50,122.50 L 131.50,126.50 L 136.00,127.50 L 141.50,127.50 L 142.00,126.00 L 141.00,125.50 L 141.00,122.50 L 136.00,122.50 Z" fill="#623E29"/><path d="M 241.50,84.00 L 239.50,83.50 L 239.50,81.00 L 236.00,80.50 L 236.00,81.50 L 235.00,82.50 L 235.50,84.50 L 233.50,87.00 L 231.50,88.00 L 227.00,88.50 L 227.00,89.00 L 229.50,90.50 L 231.50,90.50 L 230.50,89.50 L 231.00,89.00 L 234.50,89.50 L 239.50,86.50 Z" fill="#EED4B9"/><path d="M 103.00,150.00 L 106.50,151.50 L 109.00,151.50 L 111.00,152.50 L 111.50,153.50 L 112.50,153.50 L 113.00,152.00 L 113.50,152.50 L 116.00,152.50 L 116.50,152.00 L 122.00,155.00 L 126.50,155.50 L 126.50,155.00 L 125.50,155.00 L 120.50,152.00 L 119.00,152.50 L 118.50,152.00 L 119.00,151.00 L 117.00,151.50 L 116.50,151.00 L 117.00,150.00 L 112.50,148.50 L 113.00,149.50 L 112.50,150.50 L 111.00,150.50 L 107.00,148.50 L 104.00,148.50 Z" fill="#B69478"/><path d="M 257.50,79.50 L 253.50,84.50 L 251.00,84.00 L 249.50,82.50 L 249.50,80.50 L 249.00,80.50 L 248.50,82.00 L 245.00,84.50 L 245.00,86.00 L 249.00,88.50 L 252.50,88.50 L 255.50,85.00 Z" fill="#EED4B9"/><path d="M 196.50,49.00 L 196.00,49.00 L 196.00,50.50 L 195.00,52.50 L 195.00,58.00 L 194.50,58.50 L 195.00,60.50 L 194.50,61.00 L 194.50,71.00 L 195.00,71.50 L 195.00,80.50 L 194.50,82.50 L 195.00,82.50 L 195.50,80.50 L 196.50,79.50 L 196.50,75.50 L 195.50,73.00 L 195.50,69.00 L 196.50,67.50 L 196.50,58.00 L 195.50,56.00 L 195.50,52.50 L 196.50,50.50 Z" fill="#944713"/><path d="M 205.50,125.50 L 202.00,126.00 L 200.00,129.00 L 200.00,130.50 L 202.00,133.50 L 204.50,133.50 L 206.00,131.50 L 206.50,126.50 Z" fill="#944713"/><path d="M 196.50,183.00 L 196.00,183.50 L 196.00,186.50 L 197.50,188.00 L 197.00,189.50 L 198.00,191.50 L 200.50,193.50 L 203.50,193.00 L 205.00,191.50 L 205.50,190.00 L 202.50,190.00 L 200.00,189.00 L 198.50,187.50 L 198.00,183.50 Z" fill="#EED4B9"/><path d="M 208.50,103.00 L 208.50,104.00 L 211.00,105.50 L 212.50,107.00 L 212.50,108.00 L 216.00,111.50 L 218.00,112.50 L 220.50,112.00 L 219.50,111.00 L 219.50,110.00 L 220.50,109.00 L 219.00,109.50 L 218.50,108.50 L 217.00,108.50 L 215.00,106.50 L 214.00,106.50 L 213.50,105.00 L 210.50,103.00 L 210.50,101.50 Z" fill="#D4B79C"/><path d="M 101.00,185.00 L 101.00,188.50 L 103.00,191.00 L 109.50,191.50 L 109.50,190.50 L 106.00,188.00 L 106.50,186.00 L 106.00,184.50 L 105.00,184.50 L 103.00,187.00 L 102.00,187.00 L 101.50,185.00 Z" fill="#FCF8F1"/><path d="M 186.50,100.50 L 185.50,101.50 L 186.00,109.50 L 188.50,112.00 L 189.50,112.00 L 189.50,110.50 L 187.50,109.00 L 187.00,106.50 L 188.50,104.00 L 191.00,106.50 L 192.00,101.50 L 191.00,101.50 L 190.00,102.50 L 188.50,101.00 Z" fill="#E78020"/><path d="M 43.50,59.50 L 43.00,59.50 L 42.00,62.50 L 40.50,63.50 L 40.00,66.50 L 37.50,67.50 L 38.00,69.50 L 37.50,70.00 L 35.00,70.00 L 37.00,74.00 L 37.50,74.00 L 37.00,72.00 L 37.50,71.50 L 40.50,72.00 L 41.00,71.00 L 40.50,70.00 L 40.50,65.00 L 42.00,64.50 L 43.50,66.00 L 45.00,66.00 L 45.00,65.00 L 43.00,63.00 L 43.00,61.00 L 44.00,60.50 Z" fill="#C26110"/><path d="M 239.50,42.00 L 239.00,43.00 L 239.00,51.00 L 240.00,53.00 L 240.00,55.50 L 240.50,55.50 L 240.50,52.00 L 241.50,50.50 L 241.00,49.00 L 243.50,45.50 L 244.00,42.50 L 240.50,43.00 Z" fill="#C26110"/><path d="M 113.00,133.00 L 113.00,134.50 L 115.00,136.50 L 116.50,136.50 L 119.50,139.50 L 120.50,139.50 L 120.00,138.50 L 122.00,137.50 L 122.00,136.00 L 120.00,133.00 L 119.00,133.00 L 119.50,134.50 L 118.50,135.50 L 118.00,133.00 L 116.00,133.50 L 115.50,135.00 L 114.50,134.50 L 114.00,133.00 Z" fill="#1A100C"/><path d="M 237.50,89.50 L 237.50,90.00 L 238.50,90.00 L 241.50,92.00 L 243.50,92.00 L 244.50,91.50 L 245.00,89.50 L 246.00,88.50 L 243.00,86.00 L 242.00,86.00 Z" fill="#1A100C"/><path d="M 96.00,154.00 L 91.50,157.50 L 88.00,159.00 L 88.00,159.50 L 89.50,159.50 L 90.00,158.50 L 90.50,159.50 L 92.00,159.50 L 93.50,161.00 L 95.50,161.00 L 96.50,159.50 L 96.50,155.00 Z" fill="#B69478"/><path d="M 110.00,137.00 L 110.00,138.00 L 111.00,138.50 L 110.50,139.00 L 111.00,140.00 L 112.50,140.00 L 116.00,141.50 L 122.00,146.00 L 125.50,146.50 L 124.00,145.00 L 122.00,144.50 L 120.50,142.50 L 118.00,141.50 L 115.50,138.50 L 111.50,138.00 Z" fill="#E78020"/><path d="M 206.50,63.50 L 206.50,64.50 L 209.50,68.00 L 214.00,69.00 L 214.50,70.50 L 217.00,69.50 L 221.50,65.50 L 221.50,64.00 L 221.00,64.00 L 217.50,68.00 L 216.50,68.00 L 216.00,67.50 L 213.50,67.50 L 213.00,67.00 L 213.50,66.00 L 211.00,66.50 L 207.50,63.50 Z" fill="#C26110"/><path d="M 177.50,48.00 L 173.50,52.00 L 168.00,55.50 L 167.00,57.50 L 164.50,58.50 L 163.00,60.50 L 162.00,60.50 L 160.50,63.00 L 163.50,60.00 L 165.00,59.50 L 167.00,61.00 L 170.50,57.00 L 169.50,56.00 L 172.00,53.50 L 173.50,53.00 L 177.50,49.00 Z" fill="#E78020"/><path d="M 226.50,93.50 L 228.00,96.00 L 229.00,95.50 L 231.50,96.50 L 234.00,96.50 L 234.50,96.00 L 236.00,96.50 L 236.50,95.00 L 234.50,93.00 Z" fill="#9D6145"/><path d="M 214.00,190.00 L 210.50,191.50 L 209.00,191.50 L 207.00,193.00 L 205.50,195.50 L 211.00,195.50 L 212.50,194.50 Z" fill="#EED4B9"/><path d="M 176.00,134.50 L 175.50,134.50 L 176.50,139.50 L 176.00,141.50 L 174.50,142.00 L 172.00,145.00 L 171.00,150.00 L 170.00,151.50 L 170.00,154.00 L 171.50,153.50 L 172.00,152.50 L 171.50,150.50 L 172.50,149.50 L 174.00,144.00 L 176.50,143.00 L 177.00,136.00 Z" fill="#F4986B"/><path d="M 54.00,56.00 L 52.50,56.00 L 49.00,54.50 L 49.00,59.00 L 46.50,59.50 L 46.00,61.00 L 44.50,61.50 L 45.00,63.00 L 46.50,62.50 L 47.00,60.50 L 49.50,62.50 L 50.50,62.50 L 50.00,60.00 L 50.50,58.00 L 52.00,57.00 L 53.50,57.50 Z" fill="#C26110"/><path d="M 148.50,148.00 L 150.00,153.00 L 152.00,155.50 L 155.00,155.00 L 156.50,154.00 L 156.00,152.00 L 154.00,151.50 L 154.50,150.50 L 150.50,151.00 L 149.50,150.00 L 149.50,148.00 Z" fill="#E78020"/><path d="M 144.50,96.50 L 143.00,95.50 L 140.00,95.00 L 139.00,95.50 L 137.00,98.50 L 136.50,100.50 L 137.50,100.50 L 138.00,99.00 L 140.00,99.50 L 144.50,98.00 Z" fill="#623E29"/><path d="M 150.00,148.50 L 150.50,150.50 L 154.50,150.00 L 156.50,152.50 L 158.00,151.50 L 157.00,150.50 L 157.50,149.00 L 156.50,149.50 L 156.00,149.00 L 156.50,148.00 L 156.00,146.00 L 155.00,146.00 L 154.00,147.50 L 151.00,147.50 Z" fill="#C26110"/><path d="M 213.50,148.00 L 212.00,149.50 L 211.00,149.50 L 210.50,150.50 L 209.00,150.50 L 208.50,149.50 L 207.00,149.00 L 205.00,149.50 L 205.00,150.00 L 207.50,150.50 L 206.50,152.00 L 205.00,152.50 L 205.00,154.50 L 206.00,154.50 L 207.00,155.50 L 204.50,157.00 L 203.00,156.00 L 202.50,156.50 L 203.50,157.50 L 203.00,159.00 L 204.00,159.00 L 204.50,158.00 L 208.00,156.50 L 207.50,155.50 L 208.00,155.00 L 209.50,155.00 L 208.50,154.00 L 206.00,154.00 L 205.50,153.00 L 208.00,151.50 L 210.00,152.00 L 211.00,150.00 L 213.50,149.00 Z" fill="#3A2F2A"/><path d="M 91.50,132.00 L 91.00,132.00 L 89.00,136.00 L 87.00,142.50 L 89.50,142.00 L 90.50,141.00 L 93.00,141.50 L 93.00,140.50 L 91.00,138.50 L 90.00,136.00 Z" fill="#C26110"/><path d="M 236.50,91.50 L 238.50,94.50 L 237.50,96.00 L 238.50,96.50 L 242.00,101.00 L 239.50,95.00 L 240.00,94.50 L 242.00,95.50 L 243.50,95.00 L 243.50,94.50 L 239.00,91.50 Z" fill="#9D6145"/><path d="M 82.50,97.50 L 78.00,101.00 L 75.50,102.00 L 72.00,102.00 L 71.50,100.50 L 66.50,101.50 L 66.50,102.00 L 69.50,103.00 L 75.00,103.00 L 75.50,104.00 L 76.50,104.00 Z" fill="#1A100C"/><path d="M 112.50,136.00 L 111.50,135.00 L 110.50,132.00 L 107.00,132.50 L 103.50,136.00 L 101.50,137.00 L 100.50,138.50 L 103.50,137.50 L 107.50,133.50 L 109.50,134.00 L 110.00,136.50 L 112.00,137.50 Z" fill="#C26110"/><path d="M 124.50,147.00 L 128.00,150.50 L 131.00,151.50 L 131.50,149.50 L 130.50,149.50 L 130.00,149.00 L 130.50,147.50 L 129.00,147.00 L 130.00,146.00 L 128.50,146.50 L 126.50,146.00 L 125.50,147.00 Z" fill="#C26110"/><path d="M 192.50,148.00 L 191.00,150.00 L 188.50,150.50 L 187.50,151.50 L 187.50,152.50 L 184.50,155.00 L 189.50,154.50 L 190.00,153.50 L 191.00,153.50 L 191.00,152.00 L 192.50,151.00 Z" fill="#EED4B9"/><path d="M 162.00,138.00 L 160.50,139.00 L 159.50,141.00 L 158.50,141.00 L 157.00,139.00 L 156.00,139.00 L 156.00,141.00 L 158.00,144.50 L 158.50,144.50 L 159.00,143.00 L 161.50,144.00 L 160.50,141.00 L 162.00,139.50 L 162.50,141.50 L 163.00,141.50 L 163.50,139.50 L 162.00,139.00 Z" fill="#C26110"/><path d="M 83.00,101.00 L 79.50,102.50 L 79.50,104.00 L 76.00,107.00 L 75.50,109.00 L 77.50,108.50 L 82.50,103.00 Z" fill="#C26110"/><path d="M 106.00,143.50 L 114.00,143.50 L 115.00,142.50 L 111.50,141.00 L 108.00,140.50 L 107.00,141.00 L 107.00,142.50 Z" fill="#EED4B9"/><path d="M 252.50,55.50 L 251.00,57.00 L 251.00,57.50 L 252.50,58.00 L 251.50,60.50 L 251.50,63.50 L 253.50,64.50 L 254.50,63.50 L 254.50,62.00 L 253.00,61.50 L 253.00,60.50 L 254.00,60.00 L 254.00,58.50 L 253.50,58.00 L 253.50,55.50 Z" fill="#C26110"/><path d="M 62.50,22.00 L 59.50,24.00 L 57.50,28.00 L 56.50,32.50 L 57.50,32.00 L 59.00,29.00 L 60.00,28.50 L 60.00,27.50 L 61.50,27.00 L 61.50,26.00 L 60.50,26.50 L 60.00,25.50 Z" fill="#EED4B9"/><path d="M 214.00,155.50 L 213.00,156.50 L 212.00,156.00 L 209.50,158.00 L 208.50,158.00 L 207.50,159.50 L 209.00,160.50 L 210.00,160.00 L 210.50,161.00 L 212.00,161.00 L 212.00,159.00 L 214.00,156.50 Z" fill="#D4B79C"/><path d="M 76.50,122.50 L 75.50,122.50 L 74.00,124.00 L 73.00,127.00 L 72.00,128.00 L 72.50,129.00 L 75.00,128.50 L 76.00,127.00 Z" fill="#C26110"/><path d="M 163.00,131.00 L 162.50,131.00 L 161.50,135.50 L 160.00,136.50 L 160.00,137.50 L 159.00,138.50 L 158.50,138.00 L 156.00,138.00 L 158.50,140.50 L 159.50,140.50 L 160.00,139.00 L 163.00,135.50 Z" fill="#944713"/><path d="M 193.50,134.00 L 197.00,138.50 L 199.50,138.00 L 201.00,136.50 L 201.00,136.00 L 199.50,136.00 L 195.50,134.00 Z" fill="#D4B79C"/><path d="M 116.50,143.50 L 118.50,145.50 L 117.50,147.00 L 122.00,149.50 L 123.50,149.50 L 124.50,150.50 L 125.50,150.50 L 124.50,149.00 Z" fill="#EED4B9"/><path d="M 92.00,170.50 L 95.00,189.00 L 96.00,189.50 L 95.00,186.50 L 92.50,170.50 Z" fill="#623E29"/><path d="M 194.00,53.00 L 193.50,53.00 L 193.00,58.50 L 192.50,59.00 L 193.00,68.00 L 193.50,68.00 L 193.50,63.00 L 194.00,62.50 Z" fill="#1A100C"/><path d="M 96.50,98.00 L 96.00,98.50 L 96.50,99.50 L 96.00,102.50 L 95.00,104.00 L 94.50,107.50 L 96.00,108.00 L 97.50,110.00 L 98.00,108.00 L 95.50,107.00 L 95.50,104.00 L 97.50,101.50 L 98.50,98.50 Z" fill="#C26110"/><path d="M 134.00,109.50 L 138.50,109.50 L 138.50,109.00 L 136.00,109.00 L 135.50,108.50 L 136.00,108.00 L 141.50,108.00 L 142.50,109.00 L 142.00,109.50 L 139.50,109.50 L 139.50,110.00 L 142.50,110.00 L 143.00,108.50 L 142.50,107.50 L 135.00,106.50 Z" fill="#9D6145"/><path d="M 159.50,155.50 L 157.00,154.00 L 156.00,155.00 L 153.00,155.50 L 152.00,156.50 L 154.00,156.00 L 155.00,157.50 L 158.50,157.50 L 158.00,156.50 L 159.50,156.00 Z" fill="#C26110"/><path d="M 170.50,173.00 L 171.00,174.00 L 176.50,175.00 L 178.50,176.00 L 188.50,178.00 L 191.50,178.00 L 191.50,177.50 L 188.50,177.50 L 186.50,176.50 L 179.00,175.50 Z" fill="#623E29"/><path d="M 167.00,116.50 L 165.50,118.00 L 166.00,122.50 L 165.00,125.00 L 166.50,123.00 L 166.50,120.00 L 168.00,118.50 L 171.00,120.50 L 172.00,120.50 L 171.50,119.50 L 170.00,119.00 Z" fill="#944713"/><path d="M 144.00,110.00 L 142.00,112.50 L 141.00,116.50 L 141.00,119.50 L 140.00,121.50 L 142.00,120.00 Z" fill="#1A100C"/><path d="M 194.00,83.50 L 193.00,88.00 L 196.50,91.50 L 195.50,89.50 L 196.50,88.00 L 195.50,85.50 L 194.50,85.00 L 194.50,83.50 Z" fill="#944713"/><path d="M 153.50,99.00 L 151.50,101.00 L 149.00,106.00 L 146.50,106.00 L 147.50,107.00 L 146.50,107.50 L 147.50,108.50 L 147.00,109.50 L 148.00,109.50 L 149.50,108.00 L 149.50,106.00 Z" fill="#623E29"/><path d="M 256.50,200.50 L 255.50,200.00 L 256.00,199.00 L 254.50,198.50 L 255.00,199.50 L 254.50,200.00 L 250.00,200.00 L 246.50,201.50 L 246.50,202.00 L 250.00,202.00 L 252.50,201.00 L 256.50,201.00 Z" fill="#D4B79C"/><path d="M 191.00,143.00 L 191.50,146.50 L 193.00,145.50 L 193.50,146.50 L 194.50,146.00 L 196.00,147.50 L 196.00,146.00 L 193.00,142.50 Z" fill="#EED4B9"/><path d="M 177.00,177.00 L 178.00,178.50 L 179.50,178.50 L 180.00,179.50 L 189.00,180.00 L 188.00,179.00 L 184.50,179.00 L 182.50,178.00 L 179.00,178.00 Z" fill="#EED4B9"/><path d="M 40.00,83.50 L 43.00,87.00 L 45.00,88.00 L 48.00,88.00 L 47.50,87.00 Z" fill="#944713"/><path d="M 58.00,97.50 L 58.00,98.00 L 62.00,98.50 L 63.50,100.00 L 65.00,98.50 L 68.50,98.50 L 69.00,100.00 L 70.00,99.50 L 70.00,98.50 L 68.50,98.00 Z" fill="#623E29"/><path d="M 178.00,123.00 L 180.00,126.00 L 181.00,126.00 L 181.50,127.00 L 182.50,126.50 L 189.00,133.00 L 188.00,130.00 L 185.00,128.00 L 184.00,128.00 L 182.50,126.00 L 181.50,126.50 L 181.00,125.00 Z" fill="#C26110"/><path d="M 49.00,91.50 L 49.00,92.50 L 51.00,93.50 L 55.50,94.00 L 53.50,92.00 Z" fill="#944713"/><path d="M 36.50,187.00 L 36.50,192.50 L 39.00,192.50 L 38.00,191.00 L 38.50,189.50 L 38.00,187.00 Z" fill="#B69478"/><path d="M 177.50,120.00 L 183.50,126.00 L 187.00,128.50 L 190.50,130.00 L 190.50,129.50 L 184.50,126.00 Z" fill="#1A100C"/><path d="M 234.50,71.00 L 236.00,71.50 L 237.50,69.50 L 239.00,70.50 L 240.00,69.50 L 241.50,69.50 L 241.50,69.00 L 236.00,69.00 L 235.00,68.50 Z" fill="#3A2F2A"/><path d="M 107.00,178.00 L 105.00,178.50 L 105.50,180.00 L 104.50,181.00 L 104.50,182.00 L 108.00,180.50 Z" fill="#FCF8F1"/><path d="M 79.00,145.50 L 78.50,143.00 L 77.50,143.00 L 76.50,144.00 L 75.50,143.50 L 74.00,143.50 L 72.00,144.50 L 70.50,144.00 L 71.50,145.00 L 74.00,145.50 L 77.50,144.00 Z" fill="#F4986B"/><path d="M 109.00,89.00 L 107.00,88.50 L 103.00,92.50 L 102.00,95.00 L 103.50,94.50 L 104.50,92.50 Z" fill="#9D6145"/><path d="M 95.50,113.00 L 93.00,115.50 L 93.00,117.00 L 94.00,117.50 L 94.00,123.50 L 94.50,123.50 L 94.50,117.50 Z" fill="#C26110"/><path d="M 37.00,184.50 L 42.50,184.00 L 46.00,182.50 L 46.00,181.50 L 41.50,183.50 L 39.50,183.00 L 40.50,182.00 L 40.00,181.50 L 38.50,182.00 L 39.00,183.50 L 37.00,184.00 Z" fill="#623E29"/><path d="M 167.00,120.00 L 167.00,123.00 L 169.50,121.00 L 172.50,121.50 L 172.50,121.00 L 171.00,121.00 L 168.50,119.00 Z" fill="#C26110"/><path d="M 230.00,29.00 L 233.00,32.50 L 234.50,32.00 L 233.00,30.00 L 233.50,29.00 L 232.00,28.50 Z" fill="#F4986B"/><path d="M 155.50,140.00 L 155.00,140.00 L 154.00,146.50 L 155.50,144.50 L 156.50,145.50 L 156.00,144.50 L 157.00,144.00 Z" fill="#944713"/><path d="M 94.00,93.00 L 93.00,93.00 L 89.00,95.00 L 88.00,96.50 L 87.50,96.00 L 87.00,96.50 L 88.50,97.00 L 94.00,94.00 Z" fill="#C26110"/><path d="M 98.00,151.50 L 99.00,154.50 L 99.00,160.00 L 100.00,159.50 L 100.00,155.00 L 99.00,152.00 Z" fill="#623E29"/><path d="M 28.00,171.00 L 28.00,173.50 L 30.50,174.50 L 30.00,175.50 L 31.00,175.00 L 34.00,175.50 L 33.50,174.50 L 32.50,174.50 L 29.00,172.50 L 28.50,171.00 Z" fill="#EED4B9"/><path d="M 213.50,129.50 L 212.50,130.50 L 208.50,130.00 L 208.50,131.50 L 211.00,131.50 L 212.00,132.50 L 213.00,132.50 Z" fill="#623E29"/><path d="M 154.00,96.00 L 151.50,98.00 L 149.50,101.50 L 149.50,102.50 L 146.50,105.00 L 149.00,104.50 L 151.00,100.00 Z" fill="#1A100C"/><path d="M 41.00,45.50 L 40.00,45.00 L 39.00,45.50 L 38.00,50.00 L 38.50,50.00 L 39.00,48.50 L 40.50,48.00 L 40.50,47.00 L 41.50,46.50 Z" fill="#F4986B"/><path d="M 199.00,41.00 L 198.00,41.00 L 197.50,42.50 L 196.00,44.00 L 197.00,45.00 L 197.00,46.50 L 197.50,46.50 L 198.50,44.00 Z" fill="#944713"/><path d="M 79.50,98.00 L 76.50,98.50 L 74.00,101.00 L 77.00,100.50 Z" fill="#623E29"/><path d="M 132.00,98.00 L 132.50,99.00 L 131.00,99.50 L 131.00,100.50 L 129.50,102.50 L 131.00,104.00 L 131.50,104.00 L 131.50,102.50 L 130.50,102.00 L 133.50,99.00 Z" fill="#623E29"/><path d="M 113.00,183.00 L 113.00,183.50 L 117.00,184.50 L 120.00,187.00 L 120.00,188.50 L 120.50,188.50 L 120.50,187.00 L 119.50,186.50 L 119.50,185.50 L 118.00,184.00 L 116.00,183.00 Z" fill="#FCF8F1"/><path d="M 207.00,150.50 L 204.50,151.00 L 203.50,155.00 L 204.00,156.50 L 206.00,155.50 L 206.00,155.00 L 204.50,154.50 L 204.50,152.50 L 205.50,151.50 L 206.50,151.50 Z" fill="#623E29"/><path d="M 210.50,62.50 L 212.00,64.50 L 213.50,65.00 L 216.50,64.50 L 216.50,63.50 L 212.50,63.50 L 211.50,62.50 Z" fill="#3A2F2A"/><path d="M 245.50,68.00 L 247.00,69.50 L 251.00,69.50 L 250.50,68.00 L 249.50,68.50 Z" fill="#3A2F2A"/><path d="M 149.50,120.50 L 149.00,120.50 L 148.50,123.00 L 147.50,124.00 L 145.00,124.50 L 145.00,125.50 L 147.50,125.00 L 149.50,123.50 Z" fill="#3A2F2A"/><path d="M 223.50,131.50 L 219.00,136.00 L 220.50,136.00 L 223.00,134.00 Z" fill="#E78020"/><path d="M 190.50,92.50 L 189.00,94.00 L 188.50,96.50 L 190.00,96.50 L 191.00,94.50 Z" fill="#944713"/><path d="M 217.00,185.50 L 217.00,187.50 L 215.50,188.00 L 216.00,189.50 L 218.00,189.00 L 218.50,188.00 L 218.50,186.50 Z" fill="#EED4B9"/><path d="M 54.50,53.00 L 54.00,54.50 L 55.00,53.50 L 56.00,54.50 L 56.00,55.50 L 57.50,56.50 L 57.50,53.50 Z" fill="#C26110"/><path d="M 112.00,145.00 L 113.50,146.50 L 113.00,147.00 L 113.50,148.00 L 115.00,148.00 L 118.00,149.50 L 117.50,148.50 L 115.50,148.00 L 113.00,145.00 Z" fill="#623E29"/><path d="M 197.00,92.50 L 198.00,94.00 L 197.50,95.00 L 202.50,98.00 Z" fill="#944713"/><path d="M 42.00,82.50 L 40.00,80.50 L 39.00,81.50 L 37.50,81.50 L 38.50,84.00 L 39.00,84.00 L 38.50,83.00 L 39.00,82.00 L 41.50,83.00 Z" fill="#1A100C"/><path d="M 210.50,124.50 L 209.50,125.00 L 209.50,127.00 L 211.00,127.50 L 210.00,128.50 L 209.00,128.50 L 209.50,129.50 L 210.50,128.50 L 212.00,129.00 L 212.00,128.00 L 210.50,127.00 L 211.00,125.50 Z" fill="#9D6145"/><path d="M 220.00,64.50 L 218.00,66.00 L 214.00,66.50 L 214.00,67.00 L 217.50,67.50 Z" fill="#E78020"/><path d="M 193.00,100.50 L 192.50,100.50 L 192.50,103.50 L 191.50,104.50 L 191.50,106.50 L 193.00,106.00 Z" fill="#F4986B"/><path d="M 220.00,138.00 L 219.00,139.00 L 219.00,140.00 L 221.50,140.50 L 221.50,138.00 Z" fill="#FCF8F1"/><path d="M 64.50,101.00 L 67.00,100.50 L 68.50,99.00 L 65.00,99.00 Z" fill="#944713"/><path d="M 97.00,163.00 L 94.00,164.00 L 93.00,165.00 L 92.00,168.00 Z" fill="#623E29"/><path d="M 144.00,90.50 L 143.00,90.50 L 138.50,93.00 L 137.00,96.00 L 141.00,92.00 L 144.00,91.00 Z" fill="#1A100C"/><path d="M 49.50,37.00 L 47.50,38.00 L 46.00,40.00 L 47.00,39.50 L 48.50,40.00 L 49.50,38.50 Z" fill="#EED4B9"/><path d="M 109.50,134.50 L 108.50,135.00 L 107.00,139.00 L 108.50,138.00 L 109.50,136.00 Z" fill="#944713"/><path d="M 221.00,190.50 L 221.50,192.00 L 220.50,193.00 L 224.00,194.00 L 224.50,193.00 L 223.50,193.50 L 222.00,191.00 Z" fill="#D4B79C"/><path d="M 157.00,159.00 L 157.50,160.00 L 159.00,160.50 L 158.50,161.50 L 159.50,161.50 L 160.50,160.50 L 160.50,159.50 Z" fill="#D4B79C"/><path d="M 241.50,60.50 L 240.00,59.50 L 239.50,60.50 L 235.50,60.50 L 234.50,61.50 L 241.50,61.00 Z" fill="#EED4B9"/><path d="M 165.50,159.50 L 165.50,160.50 L 168.50,159.50 L 170.00,161.50 L 170.00,159.50 L 169.00,159.50 L 168.50,158.50 L 167.00,159.50 Z" fill="#EED4B9"/><path d="M 55.00,40.50 L 52.50,41.00 L 53.50,42.00 L 53.50,43.50 L 55.00,43.00 Z" fill="#F4986B"/><path d="M 74.00,146.00 L 74.00,146.50 L 75.00,146.50 L 77.00,145.50 L 78.00,146.50 L 81.50,146.50 L 81.50,146.00 L 78.50,146.00 L 77.50,145.00 L 76.00,145.00 L 75.00,146.00 Z" fill="#EED4B9"/><path d="M 252.00,58.00 L 251.00,58.00 L 250.50,60.00 L 249.00,61.50 L 251.00,62.00 Z" fill="#E78020"/><path d="M 42.50,88.00 L 42.50,89.00 L 47.00,92.00 L 46.00,90.50 Z" fill="#1A100C"/><path d="M 192.50,146.00 L 193.00,149.00 L 195.00,148.50 L 195.00,147.00 L 193.50,147.00 Z" fill="#D4B79C"/><path d="M 210.00,152.50 L 208.00,152.00 L 206.00,153.50 L 209.50,154.00 Z" fill="#1A100C"/><path d="M 130.00,152.00 L 132.00,153.50 L 132.00,154.50 L 133.50,154.00 L 132.50,152.00 Z" fill="#E78020"/><path d="M 188.50,60.50 L 189.00,66.50 L 190.00,66.50 L 190.00,64.50 L 189.00,63.00 L 189.00,60.50 Z" fill="#E78020"/><path d="M 145.50,92.00 L 149.00,92.50 L 149.50,91.00 L 146.50,91.00 Z" fill="#623E29"/><path d="M 115.50,193.50 L 114.00,193.50 L 113.00,194.50 L 112.00,194.00 L 112.50,195.50 L 114.50,195.50 L 114.50,194.50 Z" fill="#D4B79C"/><path d="M 254.00,199.00 L 251.00,198.50 L 247.00,200.50 L 247.00,201.00 L 250.00,199.50 L 254.00,199.50 Z" fill="#EED4B9"/><path d="M 194.50,93.50 L 192.50,95.50 L 192.00,98.00 L 194.50,95.50 Z" fill="#E78020"/><path d="M 124.50,97.50 L 124.50,98.50 L 127.50,99.50 L 127.50,98.00 Z" fill="#623E29"/><path d="M 55.00,145.00 L 53.00,145.00 L 52.50,147.00 L 53.50,147.00 Z" fill="#EED4B9"/><path d="M 233.50,110.00 L 227.50,110.50 L 226.50,112.00 L 227.50,111.00 L 233.00,111.00 Z" fill="#623E29"/>
</g>
</svg>