<svg xmlns="http://www.w3.org/2000/svg" viewBox="0 0 230 220" role="img">
<title>Barkado &amp; Co. — dalmatian headshot</title>
<desc>Clean vector recreation of the approved Barkado &amp; Co. reference pose. Theme colors: accent #1A1A1A, highlight #E63946.</desc>
<circle cx="115.0" cy="110.0" r="85.8" fill="#E63946"/>
<g shape-rendering="geometricPrecision">
<path d="M 140.50,34.00 L 123.50,34.00 L 102.00,44.00 L 90.00,43.50 L 90.00,51.50 L 105.00,44.50 L 96.50,67.00 L 97.00,78.50 L 102.00,81.00 L 97.00,95.50 L 102.50,107.50 L 121.00,127.00 L 123.50,126.00 L 112.00,111.50 L 108.50,101.00 L 102.50,98.00 L 106.00,90.50 L 112.00,91.50 L 110.00,93.50 L 117.50,103.50 L 125.50,104.50 L 133.00,99.50 L 129.50,100.50 L 132.50,95.00 L 127.50,88.00 L 128.50,83.00 L 136.00,77.50 L 146.50,76.50 L 157.00,83.50 L 153.00,102.50 L 158.00,104.50 L 162.50,101.00 L 161.50,85.50 L 167.50,96.50 L 166.00,66.50 L 161.00,83.50 L 142.50,67.00 L 146.00,50.50 L 153.00,51.50 L 155.00,54.50 L 152.00,57.50 L 162.00,63.00 L 163.50,52.00 L 154.50,40.50 Z" fill="#FCF9F4"/><path d="M 67.50,98.50 L 66.50,108.00 L 65.50,108.50 L 65.50,123.00 L 66.50,123.50 L 66.50,129.00 L 67.50,129.50 L 67.50,134.00 L 68.50,134.50 L 70.50,143.00 L 78.00,155.50 L 88.00,140.50 L 87.00,136.50 L 88.50,128.50 L 93.00,122.50 L 93.00,110.00 L 89.50,102.50 L 88.50,102.50 L 86.50,107.50 L 83.50,110.50 L 80.00,112.00 L 75.50,111.50 L 71.00,107.00 L 69.50,101.00 Z" fill="#EC433C"/><path d="M 99.50,50.50 L 94.50,50.00 L 88.50,56.00 L 87.50,53.00 L 90.00,45.50 L 87.50,46.00 L 86.50,45.00 L 78.00,55.50 L 74.00,57.50 L 76.00,54.50 L 69.00,59.00 L 69.50,60.00 L 60.00,69.00 L 58.00,68.50 L 57.00,77.50 L 60.50,84.50 L 62.50,86.00 L 63.00,82.50 L 65.50,82.00 L 67.00,74.50 L 68.00,78.00 L 70.00,77.00 L 72.00,79.00 L 74.00,83.50 L 73.50,89.50 L 74.50,89.50 L 76.00,87.00 L 76.00,83.50 L 79.50,83.00 L 80.00,79.50 L 78.50,76.00 L 79.50,71.00 L 82.00,68.50 L 84.00,69.50 L 84.50,66.50 L 87.00,63.50 L 91.00,65.50 L 91.00,59.00 L 92.50,54.50 L 95.50,51.00 Z" fill="#3C3532"/><path d="M 88.00,147.00 L 86.00,150.50 L 87.50,150.50 L 89.00,152.00 L 89.00,154.50 L 92.00,158.00 L 92.00,161.00 L 90.00,165.50 L 86.00,170.00 L 84.00,170.50 L 79.50,170.00 L 75.50,166.50 L 75.00,168.50 L 84.00,175.00 L 98.50,182.00 L 112.50,185.50 L 122.50,186.00 L 116.50,177.00 L 117.50,169.00 L 116.50,170.50 L 114.00,170.50 L 109.00,168.00 L 103.00,162.00 L 98.00,159.00 L 89.50,149.50 L 88.00,150.00 Z" fill="#FCF9F4"/><path d="M 88.00,41.50 L 74.50,54.00 L 61.50,61.00 L 55.00,71.50 L 58.50,85.00 L 75.00,110.00 L 83.50,109.00 L 87.50,102.00 L 90.50,102.00 L 94.00,109.00 L 94.00,123.50 L 90.00,128.50 L 88.50,138.00 L 92.50,126.50 L 98.50,135.50 L 95.00,129.50 L 95.50,112.50 L 98.50,114.00 L 89.50,98.50 L 92.00,88.50 L 90.50,91.00 L 86.00,89.50 L 85.00,94.00 L 89.00,98.00 L 83.50,107.50 L 76.50,109.00 L 73.00,105.00 L 75.50,98.00 L 72.00,101.50 L 67.50,94.50 L 73.00,90.50 L 71.50,79.00 L 67.00,76.00 L 62.00,86.50 L 57.50,80.50 L 56.50,71.00 L 63.00,61.50 L 76.50,54.00 L 90.00,41.50 L 100.50,40.00 Z" fill="#130C0B"/><path d="M 128.00,118.00 L 128.00,123.00 L 129.50,129.00 L 131.00,131.50 L 135.00,134.50 L 139.00,136.00 L 145.50,135.50 L 147.50,134.50 L 150.50,130.50 L 151.50,128.00 L 151.50,120.00 L 150.50,118.50 L 143.00,120.00 L 142.00,124.50 L 141.00,123.50 L 140.50,121.00 L 139.50,119.50 L 137.50,119.50 L 133.50,118.00 Z" fill="#FA847F"/><path d="M 163.50,152.50 L 162.50,154.00 L 161.00,154.00 L 157.00,160.50 L 150.50,165.50 L 145.00,171.00 L 144.50,176.00 L 139.00,184.50 L 139.00,185.50 L 143.50,185.00 L 149.50,183.00 L 154.50,173.50 L 156.50,171.50 L 157.00,176.00 L 155.00,181.00 L 158.00,180.00 L 160.50,177.00 L 162.00,177.00 L 166.00,173.00 L 162.00,169.50 L 161.00,167.00 L 161.00,161.50 L 165.00,155.50 Z" fill="#FCF9F4"/><path d="M 131.00,82.00 L 129.50,84.50 L 130.00,90.00 L 135.00,95.50 L 142.50,99.50 L 149.50,96.50 L 152.50,93.50 L 155.00,89.50 L 155.50,84.00 L 152.00,80.00 L 147.50,78.50 L 139.00,78.50 L 139.00,79.00 L 148.50,79.50 L 151.50,81.00 L 153.00,83.00 L 152.50,83.50 L 149.50,83.00 L 146.00,84.00 L 138.00,84.00 L 132.50,87.00 L 131.50,83.00 L 134.50,80.00 Z" fill="#130C0B"/><path d="M 125.50,163.50 L 124.00,167.00 L 121.50,168.50 L 120.50,170.00 L 120.50,174.00 L 127.00,182.00 L 130.00,184.00 L 132.00,184.00 L 137.00,179.50 L 141.00,173.50 L 141.00,170.00 L 140.00,168.50 L 137.50,168.50 L 137.00,168.00 L 136.00,163.50 L 134.50,163.50 L 131.00,166.50 L 128.50,165.50 L 126.50,163.50 Z" fill="#E59F22"/><path d="M 96.50,115.00 L 97.00,124.00 L 99.50,122.00 L 103.50,125.00 L 111.50,127.50 L 116.00,132.00 L 115.50,135.00 L 119.50,139.50 L 121.50,138.00 L 125.00,139.50 L 130.50,145.50 L 138.00,146.00 L 141.50,144.50 L 141.00,142.50 L 143.50,140.00 L 143.50,138.50 L 140.00,139.00 L 138.00,141.00 L 134.00,141.00 L 132.00,140.00 L 137.00,138.50 L 126.00,137.00 L 116.50,130.50 L 110.00,123.00 L 111.50,121.50 L 113.00,123.50 L 114.00,122.50 L 115.50,123.50 L 110.00,116.50 L 104.00,115.00 L 102.00,116.00 L 104.00,118.50 L 105.00,118.00 L 106.50,119.50 L 106.00,122.00 L 104.50,122.50 Z" fill="#E3C1AF"/><path d="M 161.00,133.50 L 160.00,134.00 L 158.50,137.50 L 151.50,144.50 L 150.50,146.50 L 149.50,146.50 L 149.00,147.50 L 145.50,149.50 L 143.00,149.00 L 137.00,150.50 L 137.00,161.50 L 140.00,161.50 L 149.50,157.50 L 152.50,155.50 L 156.50,151.50 L 159.50,147.50 L 160.50,145.00 Z" fill="#C61B18"/><path d="M 105.50,147.00 L 106.50,148.00 L 106.50,154.50 L 110.00,154.00 L 111.00,155.00 L 109.50,157.00 L 109.50,158.50 L 115.00,160.50 L 122.00,162.00 L 125.00,161.50 L 126.00,160.50 L 126.00,153.00 L 126.50,152.50 L 126.00,150.50 L 124.00,150.50 L 123.50,151.50 L 121.50,151.50 L 120.00,150.50 L 117.50,150.50 L 113.50,148.50 L 112.00,148.50 L 108.50,146.50 Z" fill="#C61B18"/><path d="M 87.50,66.00 L 86.00,67.00 L 86.00,69.00 L 83.50,72.00 L 83.50,73.00 L 80.50,74.00 L 80.50,76.50 L 81.50,79.00 L 81.00,84.50 L 79.50,86.00 L 78.50,86.00 L 78.00,88.50 L 74.00,92.00 L 74.00,93.00 L 76.00,94.50 L 73.50,96.50 L 75.50,96.00 L 77.00,96.50 L 78.00,97.50 L 78.00,98.50 L 82.00,102.00 L 83.50,100.50 L 83.50,94.50 L 83.00,94.00 L 83.00,92.00 L 84.00,89.50 L 83.50,84.00 L 85.00,82.00 L 86.50,82.50 L 88.00,82.00 L 88.00,78.00 L 87.50,77.50 L 88.00,66.50 Z" fill="#FCF9F4"/><path d="M 114.00,60.00 L 111.50,61.00 L 108.00,64.00 L 106.50,67.00 L 106.50,68.50 L 107.50,67.50 L 108.50,68.00 L 108.50,72.50 L 110.00,75.50 L 113.00,77.50 L 116.00,77.50 L 116.00,77.00 L 113.50,77.00 L 111.00,75.50 L 109.50,73.00 L 110.00,72.50 L 112.50,74.50 L 116.00,75.00 L 119.00,74.00 L 120.00,71.00 L 121.00,70.50 L 122.00,71.50 L 122.50,70.00 L 120.50,62.50 L 118.00,60.50 Z" fill="#130C0B"/><path d="M 97.00,124.50 L 97.00,130.00 L 98.00,131.00 L 98.00,132.00 L 99.00,131.50 L 99.00,130.00 L 100.00,128.50 L 102.00,127.00 L 105.50,127.50 L 110.00,131.00 L 114.00,136.50 L 121.00,143.00 L 122.50,145.50 L 124.50,145.50 L 127.50,147.50 L 132.50,146.50 L 132.50,146.00 L 130.50,146.00 L 128.50,143.00 L 125.00,140.00 L 123.00,139.00 L 119.50,140.00 L 115.00,135.00 L 114.50,133.50 L 115.50,133.00 L 115.50,132.00 L 110.00,127.00 L 103.50,125.50 L 99.50,122.50 Z" fill="#F5E0D1"/><path d="M 155.00,59.00 L 151.00,60.00 L 148.50,64.00 L 148.50,69.50 L 149.00,70.50 L 150.00,70.50 L 153.50,74.00 L 157.50,72.50 L 159.00,70.50 L 159.50,67.00 L 161.50,66.50 L 159.50,62.00 L 156.50,59.50 Z" fill="#130C0B"/><path d="M 84.00,152.50 L 83.00,153.00 L 80.50,157.00 L 78.00,162.50 L 76.00,164.00 L 76.00,164.50 L 77.50,165.00 L 77.50,166.00 L 78.50,167.00 L 82.00,167.00 L 82.50,168.50 L 86.00,167.00 L 90.00,162.00 L 90.00,158.50 L 89.00,158.00 L 89.50,157.00 L 87.50,155.00 L 87.50,153.50 L 86.50,154.00 Z" fill="#3C3532"/><path d="M 92.50,128.00 L 90.00,138.00 L 90.50,141.00 L 93.50,146.50 L 96.00,149.00 L 99.50,151.00 L 100.50,146.00 L 102.50,144.00 L 94.00,134.50 L 93.00,132.00 L 94.00,131.00 L 93.00,129.50 L 93.00,128.00 Z" fill="#C61B18"/><path d="M 102.00,127.50 L 105.00,130.00 L 107.00,133.00 L 107.00,136.00 L 105.00,138.00 L 102.00,136.50 L 103.50,138.50 L 106.00,138.50 L 106.50,138.00 L 108.50,138.50 L 110.00,140.00 L 110.50,142.50 L 113.00,144.00 L 114.00,144.00 L 113.00,141.00 L 114.00,139.50 L 116.00,141.50 L 116.50,143.00 L 116.00,144.50 L 117.00,145.50 L 125.50,147.00 L 124.50,146.00 L 122.50,146.00 L 121.00,144.50 L 120.50,143.00 L 113.50,136.50 L 109.50,131.00 L 105.50,128.00 Z" fill="#FCF9F4"/><path d="M 97.00,86.00 L 96.00,88.00 L 96.00,92.50 L 95.50,93.00 L 96.00,94.50 L 95.50,99.50 L 97.50,107.50 L 97.00,109.50 L 98.00,110.50 L 98.00,111.50 L 101.00,114.50 L 102.00,114.00 L 104.50,115.00 L 106.50,114.50 L 107.50,115.50 L 109.50,115.50 L 113.50,119.50 L 108.50,112.00 L 102.00,108.00 L 99.50,102.00 L 98.00,100.50 L 96.50,95.50 L 96.50,89.00 L 97.50,87.50 L 97.50,86.00 Z" fill="#F5E0D1"/><path d="M 173.00,90.50 L 173.00,94.50 L 175.50,99.50 L 176.50,103.00 L 180.00,106.00 L 183.00,105.50 L 185.00,103.00 L 185.00,101.00 L 183.50,99.00 L 183.50,98.00 L 182.00,97.50 L 180.00,98.50 L 179.50,97.00 L 178.50,97.50 L 178.00,97.00 L 178.00,96.00 L 176.50,94.00 L 177.00,90.00 Z" fill="#3C3532"/><path d="M 156.00,109.50 L 153.00,110.00 L 150.50,109.00 L 142.50,103.50 L 142.00,104.50 L 136.50,108.00 L 130.50,110.50 L 128.50,110.50 L 128.50,111.00 L 131.00,111.00 L 133.00,110.00 L 134.50,110.00 L 137.00,111.50 L 138.00,111.50 L 139.00,110.00 L 145.00,110.00 L 147.50,111.00 L 149.50,109.00 L 150.00,109.50 L 149.50,113.50 L 151.50,116.00 L 152.50,115.00 L 152.50,113.50 L 153.50,113.00 L 153.50,112.00 Z" fill="#130C0B"/><path d="M 170.50,67.50 L 169.50,67.50 L 170.00,81.00 L 172.00,88.00 L 172.00,95.50 L 169.00,104.50 L 162.00,115.50 L 166.50,110.50 L 172.50,97.50 L 176.00,104.50 L 180.00,107.50 L 184.50,106.50 L 187.00,103.50 L 188.50,97.50 L 187.50,98.00 L 185.00,94.50 L 183.00,97.50 L 185.50,101.00 L 185.50,103.00 L 183.00,106.00 L 180.00,106.50 L 176.00,103.00 L 172.50,94.50 Z" fill="#130C0B"/><path d="M 106.50,93.00 L 106.50,94.50 L 108.00,96.00 L 111.00,103.00 L 115.00,110.00 L 116.00,113.50 L 118.00,116.00 L 119.00,118.50 L 121.00,119.00 L 124.00,122.00 L 123.00,120.00 L 123.50,117.50 L 120.50,115.00 L 119.50,112.50 L 121.00,110.50 L 122.50,111.50 L 123.50,110.50 L 122.50,110.50 L 118.00,108.00 L 112.50,102.50 L 108.50,95.50 L 108.50,92.50 Z" fill="#130C0B"/><path d="M 141.50,100.00 L 138.00,99.00 L 137.00,98.00 L 135.50,98.50 L 135.00,101.00 L 132.00,104.00 L 126.50,107.00 L 124.00,107.00 L 124.00,108.00 L 126.00,108.50 L 124.50,109.00 L 124.50,109.50 L 128.50,109.50 L 128.00,108.50 L 128.50,108.00 L 132.50,108.50 L 133.00,107.00 L 134.50,107.50 L 135.00,106.00 L 136.50,106.50 L 136.00,105.50 L 136.50,105.00 L 138.00,105.50 L 137.50,104.50 L 141.50,102.00 L 141.00,101.00 Z" fill="#E3C1AF"/><path d="M 153.00,52.00 L 146.00,51.00 L 144.00,57.50 L 144.00,61.50 L 143.00,63.00 L 143.00,67.00 L 143.50,67.00 L 144.00,65.00 L 146.00,66.50 L 146.00,64.00 L 147.50,62.50 L 147.50,61.50 L 146.50,61.00 L 147.50,57.00 L 150.50,54.50 L 152.00,55.00 L 151.00,57.00 L 154.50,54.50 L 154.50,53.50 Z" fill="#F5E0D1"/><path d="M 177.00,75.50 L 178.00,76.50 L 178.00,77.50 L 177.00,78.00 L 177.50,86.00 L 179.00,87.50 L 179.00,89.00 L 179.50,89.00 L 180.00,87.50 L 181.00,89.00 L 181.00,90.50 L 180.00,91.50 L 179.50,90.00 L 179.00,90.00 L 178.50,94.50 L 179.00,95.50 L 181.50,96.50 L 183.50,94.00 L 181.50,91.00 L 181.50,87.00 L 182.50,85.00 L 182.50,83.00 L 181.50,81.00 L 179.50,79.50 L 178.50,77.50 L 178.50,75.50 Z" fill="#FCF9F4"/><path d="M 166.00,113.50 L 161.50,118.00 L 161.50,121.00 L 161.00,121.50 L 161.00,128.50 L 163.50,131.50 L 163.50,134.00 L 164.00,134.00 L 164.00,129.50 L 165.00,129.00 L 165.00,123.50 L 166.00,123.00 Z" fill="#EC433C"/><path d="M 124.50,112.50 L 125.50,117.00 L 127.00,119.00 L 127.50,119.00 L 128.00,117.50 L 133.50,117.50 L 137.50,119.00 L 140.00,119.00 L 137.50,114.00 Z" fill="#EC433C"/><path d="M 115.00,54.50 L 115.00,56.00 L 118.00,58.00 L 118.50,57.50 L 117.00,56.50 L 117.50,55.50 L 119.50,55.50 L 123.00,58.00 L 124.00,61.00 L 124.00,63.00 L 123.00,63.50 L 123.00,66.00 L 124.00,67.50 L 124.00,74.00 L 125.00,74.50 L 126.50,70.50 L 126.50,61.00 L 125.50,59.00 L 125.50,57.50 L 123.50,55.00 L 120.50,55.00 L 119.50,54.00 Z" fill="#F5E0D1"/><path d="M 89.00,147.00 L 88.50,148.50 L 98.00,158.50 L 103.00,161.50 L 106.00,165.00 L 110.50,168.50 L 114.00,170.00 L 115.00,169.50 L 116.50,170.00 L 116.50,169.00 L 118.00,167.50 L 112.00,166.00 L 105.50,161.50 L 99.00,158.50 L 93.50,153.50 L 91.50,150.50 L 92.50,149.50 L 90.50,146.50 Z" fill="#F5E0D1"/><path d="M 76.00,98.00 L 73.50,103.00 L 74.00,106.50 L 76.50,108.50 L 81.00,108.50 L 83.00,107.50 L 81.00,105.50 L 81.00,103.50 L 80.00,103.00 L 80.00,102.00 L 78.50,100.50 L 77.50,100.50 L 76.50,98.00 Z" fill="#3C3532"/><path d="M 111.50,95.00 L 111.50,97.00 L 112.50,97.50 L 112.50,99.00 L 113.50,99.50 L 113.50,101.00 L 117.50,104.50 L 117.00,105.50 L 118.00,105.00 L 119.00,107.00 L 121.50,107.50 L 122.00,108.50 L 123.50,108.50 L 122.50,107.50 L 123.00,107.00 L 126.50,106.50 L 132.00,103.50 L 134.50,101.00 L 135.00,98.00 L 134.00,96.50 L 132.50,96.50 L 133.50,99.50 L 130.00,103.00 L 125.50,105.00 L 121.50,105.00 L 121.00,105.50 L 119.00,105.00 L 117.00,103.50 L 115.50,100.00 L 112.50,95.50 Z" fill="#F5E0D1"/><path d="M 95.50,85.50 L 94.50,90.50 L 93.00,91.00 L 93.00,94.00 L 91.50,99.00 L 92.00,101.50 L 93.50,103.00 L 93.00,104.00 L 94.50,104.50 L 94.00,106.00 L 95.50,106.50 L 95.00,107.50 L 96.00,107.00 L 97.00,108.00 L 96.50,104.00 L 95.00,99.50 L 95.50,97.50 L 95.00,93.00 L 95.50,92.50 L 95.50,88.00 L 96.00,87.50 L 96.00,85.50 Z" fill="#E3C1AF"/><path d="M 162.00,150.50 L 158.00,154.00 L 158.50,156.00 L 156.50,159.50 L 154.00,162.00 L 153.00,162.00 L 152.00,163.00 L 150.00,163.00 L 142.00,166.50 L 144.50,170.00 L 144.00,171.50 L 150.50,165.00 L 156.50,160.50 L 159.50,155.00 L 161.00,153.50 L 162.50,153.50 Z" fill="#F5E0D1"/><path d="M 92.50,150.50 L 93.00,152.00 L 97.00,156.50 L 101.50,159.50 L 105.50,161.00 L 110.00,164.50 L 117.00,167.00 L 119.00,167.00 L 120.00,166.00 L 120.00,165.00 L 116.50,164.00 L 112.50,164.50 L 111.50,163.00 L 110.50,163.00 L 108.50,161.00 L 106.50,160.00 L 105.50,160.50 L 104.50,159.00 L 103.00,159.50 L 102.50,158.00 L 101.50,158.50 L 100.50,156.50 L 98.00,155.50 L 97.50,154.00 L 94.50,151.00 L 93.50,151.50 Z" fill="#E3C1AF"/><path d="M 169.50,87.50 L 168.50,87.50 L 167.50,99.00 L 166.00,100.50 L 166.50,102.50 L 165.00,103.50 L 165.00,104.50 L 163.00,108.00 L 159.00,111.00 L 156.50,111.00 L 157.00,112.00 L 156.50,114.00 L 158.00,115.50 L 160.00,113.50 L 160.00,111.50 L 164.50,106.50 L 165.50,107.50 L 168.50,101.50 L 168.50,100.00 L 169.50,98.50 L 169.00,97.00 L 169.00,92.00 L 169.50,91.50 L 170.00,93.50 L 170.50,93.50 L 170.50,90.50 Z" fill="#F5E0D1"/><path d="M 95.50,51.50 L 94.00,53.00 L 92.50,55.50 L 92.50,57.00 L 91.50,59.00 L 91.50,76.50 L 92.00,76.50 L 92.00,67.50 L 92.50,65.50 L 94.50,61.50 L 94.50,60.00 L 96.50,55.00 L 98.00,52.00 Z" fill="#130C0B"/><path d="M 141.00,114.00 L 141.00,116.50 L 142.00,119.00 L 142.00,120.50 L 141.00,121.00 L 141.50,123.50 L 142.00,123.50 L 142.50,120.00 L 144.00,119.00 L 150.50,118.00 L 152.00,119.50 L 151.50,117.50 L 147.50,113.50 Z" fill="#EC433C"/><path d="M 152.50,142.00 L 151.00,143.00 L 148.00,142.50 L 148.00,143.50 L 145.00,146.50 L 136.50,149.00 L 134.00,148.50 L 124.00,149.00 L 113.50,146.00 L 109.50,143.50 L 109.00,144.00 L 110.50,145.50 L 117.00,148.00 L 126.50,149.50 L 127.50,150.50 L 128.50,150.50 L 130.00,149.00 L 134.00,149.50 L 135.50,151.00 L 135.50,159.50 L 136.00,159.50 L 136.00,150.00 L 143.50,148.00 L 147.50,146.00 Z" fill="#130C0B"/><path d="M 164.00,57.50 L 163.50,60.50 L 162.50,62.00 L 163.50,63.50 L 164.50,67.50 L 165.00,67.50 L 165.50,65.50 L 166.50,66.50 L 167.00,68.50 L 166.00,73.00 L 166.50,78.00 L 166.00,80.50 L 165.00,81.50 L 165.00,83.00 L 166.50,83.50 L 166.00,81.50 L 166.50,79.50 L 167.50,78.50 L 167.50,65.00 L 167.00,63.00 L 166.00,62.50 L 166.50,60.00 L 165.50,60.00 L 165.00,58.00 Z" fill="#F5E0D1"/><path d="M 89.50,141.00 L 88.00,142.00 L 87.00,144.50 L 73.00,164.50 L 72.50,167.00 L 77.50,162.50 L 84.50,149.00 L 86.50,147.00 L 88.00,144.00 L 90.00,142.50 Z" fill="#130C0B"/><path d="M 151.00,107.00 L 154.00,108.00 L 158.00,107.50 L 159.50,106.50 L 162.50,102.00 L 161.50,101.50 L 158.00,105.00 L 155.00,104.50 L 152.50,102.50 L 152.00,101.00 L 152.50,98.00 L 152.00,98.00 L 150.50,100.00 L 150.50,101.50 L 151.50,105.00 L 153.00,106.50 L 152.50,107.00 L 151.00,106.50 Z" fill="#F5E0D1"/><path d="M 158.00,155.50 L 157.00,155.00 L 156.00,156.00 L 156.00,157.00 L 154.50,158.50 L 153.50,158.50 L 153.00,159.50 L 151.00,159.50 L 147.50,162.00 L 146.50,162.00 L 146.00,163.00 L 144.50,163.00 L 144.00,164.00 L 139.50,164.50 L 139.50,165.50 L 142.50,166.00 L 150.00,162.50 L 152.00,162.50 L 153.00,161.50 L 154.00,161.50 L 156.00,159.50 Z" fill="#E3C1AF"/><path d="M 115.00,122.00 L 116.00,123.00 L 115.00,124.50 L 117.50,126.00 L 123.00,131.50 L 126.50,133.50 L 128.50,133.50 L 127.50,132.50 L 126.50,129.00 L 125.00,127.50 L 120.00,127.00 Z" fill="#F5E0D1"/><path d="M 134.50,151.50 L 134.00,151.50 L 133.50,153.00 L 132.50,151.50 L 131.50,151.50 L 133.00,153.00 L 132.00,154.00 L 130.00,154.50 L 129.00,154.00 L 128.50,155.00 L 128.50,158.50 L 129.00,159.00 L 134.00,159.00 L 134.50,158.00 Z" fill="#C61B18"/><path d="M 173.50,75.00 L 172.00,77.00 L 172.00,83.00 L 172.50,85.50 L 173.50,85.00 L 175.50,85.50 L 175.50,79.50 L 175.00,79.00 L 175.50,75.00 Z" fill="#3C3532"/><path d="M 151.50,135.50 L 147.50,138.00 L 146.50,140.00 L 146.00,139.00 L 144.00,139.00 L 144.00,140.00 L 141.50,142.50 L 142.00,144.50 L 138.50,146.00 L 138.50,146.50 L 141.00,145.50 L 143.50,145.50 L 144.50,144.00 L 145.50,144.50 L 145.00,143.50 L 146.50,143.00 L 147.00,140.00 L 149.50,137.50 L 150.50,137.50 L 151.50,136.50 Z" fill="#F5E0D1"/><path d="M 152.00,96.50 L 151.00,96.50 L 148.50,99.00 L 147.50,102.00 L 146.50,102.00 L 146.00,103.00 L 145.00,102.00 L 145.00,103.50 L 149.00,106.50 L 151.50,106.00 L 150.00,100.00 L 152.00,97.50 Z" fill="#E3C1AF"/><path d="M 88.50,67.00 L 88.00,77.50 L 89.00,81.00 L 87.50,83.00 L 87.50,84.00 L 90.50,86.00 L 90.50,78.00 L 88.50,76.00 L 88.50,73.50 L 89.50,73.00 L 89.50,68.50 L 89.00,68.00 L 89.50,67.00 Z" fill="#F5E0D1"/><path d="M 99.50,55.50 L 98.00,56.00 L 98.00,57.50 L 96.00,61.00 L 96.00,63.50 L 95.00,64.00 L 95.00,72.00 L 95.50,72.50 L 96.00,80.00 L 97.00,79.50 L 96.00,74.50 L 96.00,67.00 Z" fill="#F5E0D1"/><path d="M 134.50,174.00 L 133.00,173.00 L 129.00,174.00 L 128.00,175.00 L 128.00,177.00 L 129.00,177.00 L 129.50,178.00 L 133.50,178.00 L 135.00,176.50 Z" fill="#3C3532"/><path d="M 96.00,150.50 L 98.00,153.00 L 104.00,157.50 L 114.00,162.00 L 121.50,163.50 L 123.00,164.50 L 122.00,167.00 L 123.00,166.50 L 124.00,163.00 L 118.00,162.50 L 109.00,159.50 L 102.50,155.00 L 101.50,155.00 Z" fill="#130C0B"/><path d="M 153.50,121.50 L 152.00,121.50 L 152.00,128.00 L 151.00,130.50 L 148.00,134.00 L 148.00,135.00 L 151.00,133.00 L 151.50,132.00 L 152.50,132.50 L 153.00,131.50 L 153.00,128.00 L 154.00,125.50 Z" fill="#EC433C"/><path d="M 160.00,118.00 L 158.00,120.00 L 159.50,121.50 L 159.00,126.50 L 158.00,128.50 L 158.00,130.00 L 159.00,130.50 L 159.00,133.00 L 158.50,134.50 L 156.00,137.00 L 156.00,138.50 L 158.00,136.50 L 159.50,132.00 L 161.00,131.50 L 162.00,132.50 L 161.50,130.50 L 159.50,128.50 L 159.50,125.00 L 160.00,124.50 L 160.00,119.50 L 159.50,119.00 Z" fill="#130C0B"/><path d="M 156.00,114.00 L 155.00,114.00 L 154.00,116.50 L 153.00,117.00 L 153.00,118.00 L 154.00,118.50 L 155.00,121.00 L 156.00,120.50 L 157.50,117.50 L 157.50,115.00 Z" fill="#FCF9F4"/><path d="M 168.00,71.00 L 168.00,78.50 L 167.00,79.50 L 166.50,82.50 L 168.50,86.00 L 169.50,86.00 L 169.50,83.50 L 168.50,81.50 L 168.50,71.00 Z" fill="#E3C1AF"/><path d="M 93.50,71.50 L 94.00,83.00 L 94.50,83.00 L 95.50,80.00 L 95.50,77.00 L 95.00,76.50 L 95.00,72.50 L 94.50,71.50 Z" fill="#E3C1AF"/><path d="M 119.50,78.50 L 118.00,78.00 L 114.50,80.00 L 111.50,80.00 L 110.00,81.50 L 112.00,82.00 L 115.50,81.50 L 117.00,80.00 L 119.00,79.50 Z" fill="#F5E0D1"/><path d="M 126.50,153.00 L 126.50,159.50 L 127.50,159.00 L 128.50,160.50 L 130.50,160.00 L 132.00,161.00 L 135.00,160.50 L 135.00,158.50 L 133.50,160.00 L 133.00,159.50 L 129.00,159.50 L 128.00,158.50 L 128.00,155.50 L 127.00,155.00 L 127.00,153.00 Z" fill="#6E1F15"/><path d="M 118.00,176.50 L 119.50,180.00 L 122.00,183.50 L 125.00,185.50 L 125.50,184.00 L 124.00,183.50 L 122.00,181.50 L 120.50,178.50 Z" fill="#E3C1AF"/><path d="M 120.00,32.50 L 111.50,35.00 L 103.00,40.00 L 101.50,40.00 L 101.50,40.50 L 102.50,40.50 L 103.50,41.50 L 103.50,40.50 L 104.50,39.50 L 112.00,35.50 L 117.00,33.50 L 119.50,33.50 Z" fill="#130C0B"/><path d="M 139.50,111.50 L 140.00,115.00 L 140.50,115.00 L 141.00,113.50 L 142.50,113.00 L 147.50,113.00 L 148.50,113.50 L 148.00,112.00 L 144.50,112.50 L 144.00,111.50 L 142.00,111.00 Z" fill="#C61B18"/><path d="M 88.50,96.00 L 86.50,95.50 L 85.50,96.50 L 85.00,101.50 L 86.00,101.50 L 88.50,98.00 Z" fill="#3C3532"/><path d="M 162.00,142.00 L 161.50,146.00 L 160.50,148.00 L 162.00,147.50 L 166.00,154.00 L 167.00,154.00 L 167.00,153.00 L 165.50,151.50 L 164.00,148.00 L 162.00,146.00 L 162.50,142.00 Z" fill="#130C0B"/><path d="M 68.00,60.50 L 66.50,60.50 L 64.00,62.00 L 63.50,63.50 L 61.50,65.50 L 60.50,65.00 L 59.00,68.50 L 60.00,68.50 Z" fill="#796356"/><path d="M 126.50,161.50 L 130.00,165.00 L 132.50,164.50 L 134.00,162.50 L 135.50,162.00 L 135.50,161.00 L 134.00,161.50 L 133.00,161.00 L 133.00,162.50 L 130.50,164.50 L 128.00,162.50 L 128.00,160.00 L 127.00,160.00 Z" fill="#130C0B"/><path d="M 149.50,71.00 L 149.00,72.50 L 150.50,74.00 L 151.50,74.00 L 153.00,76.50 L 156.50,76.00 L 155.50,75.00 L 155.50,74.00 L 153.50,74.50 Z" fill="#3C3532"/><path d="M 105.50,150.50 L 105.50,153.00 L 104.50,155.00 L 108.00,157.00 L 109.00,157.00 L 110.50,155.00 L 110.00,154.50 L 106.50,155.00 L 106.00,154.50 L 106.00,150.50 Z" fill="#EC433C"/><path d="M 163.50,74.50 L 161.50,75.00 L 161.00,76.00 L 159.50,76.50 L 159.50,77.00 L 160.50,77.00 L 162.00,75.50 L 163.50,76.00 L 161.50,78.00 L 158.50,79.00 L 159.00,80.00 L 160.50,80.50 L 164.00,76.50 Z" fill="#F5E0D1"/><path d="M 144.00,82.50 L 144.00,82.00 L 142.00,82.00 L 141.00,81.00 L 141.50,80.00 L 140.50,80.00 L 139.50,81.00 L 136.00,81.00 L 135.50,81.50 L 136.50,82.50 Z" fill="#AC9589"/><path d="M 118.50,173.00 L 119.00,175.00 L 122.50,179.00 L 124.00,182.00 L 127.00,183.50 L 124.50,181.00 L 120.00,175.00 L 119.50,173.50 Z" fill="#130C0B"/><path d="M 161.00,67.00 L 160.00,67.00 L 159.00,71.00 L 159.50,73.50 L 157.50,75.50 L 160.00,74.00 L 160.50,71.50 L 161.50,70.50 Z" fill="#3C3532"/><path d="M 134.50,73.50 L 134.50,74.00 L 137.50,74.00 L 138.00,73.50 L 144.50,74.00 L 144.50,73.50 L 142.00,72.50 L 137.00,72.50 Z" fill="#F5E0D1"/><path d="M 101.00,131.50 L 101.00,133.50 L 102.00,133.00 L 103.50,135.00 L 105.50,135.00 L 105.50,133.00 L 104.50,133.50 L 104.00,131.50 L 103.00,131.00 L 102.00,132.00 Z" fill="#3C3532"/><path d="M 94.50,134.00 L 98.00,139.00 L 101.50,142.00 L 102.00,141.00 Z" fill="#EC433C"/><path d="M 151.50,55.00 L 149.50,55.50 L 148.00,57.00 L 147.00,61.00 L 148.00,61.00 Z" fill="#E3C1AF"/><path d="M 74.00,93.50 L 71.00,94.00 L 71.00,97.50 L 73.00,97.00 L 73.00,96.00 L 74.50,95.00 Z" fill="#F5E0D1"/><path d="M 110.00,58.00 L 107.50,59.00 L 105.50,61.00 L 104.50,64.00 L 109.50,59.50 Z" fill="#F5E0D1"/><path d="M 132.00,83.00 L 132.50,86.00 L 135.00,85.50 L 135.50,84.50 L 137.50,84.00 L 137.50,83.50 L 133.00,83.50 Z" fill="#3C3532"/><path d="M 156.50,172.50 L 154.50,174.50 L 155.50,175.50 L 155.50,177.50 L 153.00,182.00 L 154.00,181.00 L 155.00,182.00 L 154.50,180.00 L 155.50,179.00 L 156.50,176.00 Z" fill="#F5E0D1"/><path d="M 144.00,175.00 L 142.50,176.50 L 142.50,177.50 L 141.50,178.00 L 141.50,179.50 L 140.00,180.00 L 137.50,183.50 L 138.50,183.00 L 139.50,183.50 L 141.00,180.00 L 142.00,179.50 L 143.00,176.50 L 144.00,176.00 Z" fill="#F5E0D1"/><path d="M 86.50,86.00 L 86.00,86.50 L 86.00,89.00 L 87.00,89.50 L 87.00,90.50 L 88.00,90.50 L 88.50,86.50 Z" fill="#3C3532"/><path d="M 155.00,176.00 L 153.00,178.50 L 152.50,180.50 L 151.50,181.50 L 151.50,183.00 L 153.00,183.00 L 152.50,181.50 L 155.00,177.50 Z" fill="#E3C1AF"/><path d="M 102.50,146.00 L 102.50,147.50 L 101.50,148.50 L 101.50,149.50 L 103.00,150.50 L 103.50,148.00 L 104.50,147.50 L 104.50,146.50 Z" fill="#3C3532"/><path d="M 111.00,74.00 L 111.00,75.00 L 113.50,76.50 L 118.00,76.00 L 118.00,75.00 L 114.00,75.50 Z" fill="#3C3532"/><path d="M 160.00,149.00 L 153.50,156.00 L 155.00,155.50 L 159.50,150.50 Z" fill="#130C0B"/><path d="M 184.50,87.00 L 184.50,90.50 L 185.00,92.00 L 186.00,92.50 L 186.50,90.00 L 185.00,87.00 Z" fill="#FCF9F4"/><path d="M 130.00,150.50 L 129.50,151.00 L 129.50,153.50 L 132.00,153.50 L 132.00,152.50 L 131.00,152.00 L 132.00,150.50 Z" fill="#EC433C"/><path d="M 163.00,134.00 L 161.50,135.00 L 161.50,141.50 L 162.00,141.50 L 162.00,137.50 L 163.00,137.00 Z" fill="#6E1F15"/><path d="M 120.50,119.50 L 120.50,120.50 L 121.50,121.50 L 123.00,122.00 L 125.00,124.00 L 126.00,124.00 L 126.50,123.00 L 126.00,122.00 L 124.50,123.00 Z" fill="#3C3532"/><path d="M 108.50,140.50 L 106.00,141.00 L 106.50,142.50 L 105.50,143.50 L 107.50,143.50 L 108.50,142.50 Z" fill="#3C3532"/><path d="M 127.00,125.50 L 127.00,127.00 L 129.50,132.50 L 131.50,134.00 L 129.00,130.50 L 127.50,125.50 Z" fill="#6E1F15"/><path d="M 152.50,136.00 L 150.50,138.00 L 149.50,138.00 L 148.50,139.50 L 150.50,139.50 L 152.50,137.50 Z" fill="#E3C1AF"/><path d="M 144.00,65.50 L 144.50,69.00 L 146.00,71.00 L 145.50,67.00 Z" fill="#E3C1AF"/><path d="M 117.50,56.00 L 120.00,58.50 L 121.50,57.50 L 119.50,56.00 Z" fill="#E3C1AF"/><path d="M 106.50,144.50 L 106.50,146.00 L 108.50,146.00 L 112.50,148.00 L 108.50,145.00 Z" fill="#EC433C"/><path d="M 95.50,167.50 L 94.50,169.50 L 95.00,170.50 L 96.50,170.50 L 96.50,169.50 L 97.50,168.50 L 96.50,169.00 L 96.00,167.50 Z" fill="#3C3532"/><path d="M 135.00,183.00 L 131.50,185.50 L 129.50,185.00 L 128.50,184.00 L 128.00,184.50 L 131.50,186.00 L 133.50,185.00 Z" fill="#130C0B"/><path d="M 152.00,157.00 L 145.00,160.50 L 145.00,161.00 L 150.00,159.00 Z" fill="#130C0B"/><path d="M 148.00,99.50 L 146.50,99.00 L 145.50,101.50 L 147.50,101.50 Z" fill="#AC9589"/><path d="M 91.00,143.50 L 91.50,146.00 L 93.00,148.00 L 94.00,148.00 L 91.50,143.50 Z" fill="#6E1F15"/><path d="M 175.00,71.00 L 174.00,72.00 L 172.00,72.00 L 172.00,73.50 L 173.50,72.50 L 175.00,73.50 L 175.50,73.00 Z" fill="#AC9589"/><path d="M 138.00,112.00 L 137.50,113.50 L 140.00,116.00 L 139.50,113.50 Z" fill="#6E1F15"/><path d="M 95.50,83.00 L 94.00,84.50 L 94.00,88.50 L 94.50,88.50 L 94.50,87.00 L 95.50,85.00 Z" fill="#F5E0D1"/><path d="M 172.00,68.50 L 172.00,71.00 L 174.00,71.50 L 173.00,70.50 L 174.00,69.50 Z" fill="#E3C1AF"/><path d="M 94.00,168.00 L 93.50,169.00 L 94.00,171.00 L 95.00,171.50 L 97.50,171.00 L 97.50,169.50 L 97.00,169.50 L 96.50,171.00 L 95.00,171.00 L 94.00,169.50 L 94.50,168.50 Z" fill="#130C0B"/><path d="M 156.00,77.00 L 157.00,78.50 L 158.00,78.00 L 159.50,78.50 L 160.00,77.50 Z" fill="#E3C1AF"/><path d="M 183.50,85.50 L 182.50,86.50 L 182.50,90.00 L 183.50,90.00 L 183.50,87.50 L 183.00,87.00 Z" fill="#E3C1AF"/><path d="M 130.00,161.00 L 129.50,162.50 L 131.00,163.00 L 132.00,161.50 Z" fill="#E59F22"/><path d="M 104.50,94.00 L 103.50,95.00 L 103.50,97.50 L 105.00,96.50 Z" fill="#E3C1AF"/><path d="M 98.00,151.00 L 99.00,152.50 L 100.00,153.00 L 101.00,152.50 L 100.50,150.00 L 100.00,150.00 L 99.50,152.00 Z" fill="#6E1F15"/>
</g>
</svg>