<svg xmlns="http://www.w3.org/2000/svg" viewBox="0 0 310 220" role="img">
<title>Barkado &amp; Co. — dalmatian active</title>
<desc>Clean vector recreation of the approved Barkado &amp; Co. reference pose. Theme colors: accent #1A1A1A, highlight #E63946.</desc>

<g shape-rendering="geometricPrecision">
<path d="M 139.50,86.50 L 133.00,89.50 L 130.00,87.00 L 131.50,85.00 L 121.50,85.00 L 127.50,91.50 L 117.00,99.50 L 111.00,97.00 L 109.00,91.00 L 114.50,85.50 L 97.00,91.00 L 98.00,94.50 L 92.50,101.00 L 82.00,103.50 L 67.00,130.00 L 60.50,132.50 L 56.50,128.00 L 51.00,128.50 L 38.00,146.00 L 29.00,153.00 L 28.00,157.50 L 32.00,159.50 L 37.00,157.00 L 53.00,141.50 L 65.50,143.00 L 69.00,140.00 L 73.00,144.50 L 80.00,144.50 L 79.00,139.00 L 81.50,134.00 L 90.00,131.50 L 92.50,136.00 L 99.50,129.00 L 98.50,125.50 L 105.50,123.50 L 111.00,110.50 L 115.00,113.00 L 117.00,121.50 L 127.50,129.00 L 130.50,123.50 L 134.50,124.50 L 134.50,116.00 L 131.50,113.00 L 130.50,104.50 L 125.50,100.00 L 128.50,97.00 L 132.50,98.00 Z" fill="#FBF9F6"/><path d="M 245.50,20.00 L 239.00,21.50 L 230.00,19.00 L 216.00,23.50 L 216.00,27.00 L 209.00,25.00 L 201.50,27.00 L 203.00,29.50 L 208.00,26.50 L 215.00,28.50 L 210.50,55.50 L 215.50,60.00 L 210.50,65.00 L 210.00,69.50 L 213.00,78.50 L 228.00,92.50 L 220.50,74.50 L 216.50,74.00 L 217.00,69.00 L 223.50,66.50 L 224.00,72.00 L 236.00,79.50 L 242.00,79.50 L 246.50,76.50 L 243.50,62.00 L 252.00,56.50 L 261.50,57.50 L 251.00,50.00 L 249.50,43.00 L 252.50,33.00 L 258.00,34.50 L 255.50,39.50 L 260.50,39.50 L 264.50,44.00 L 263.50,37.00 L 256.00,31.00 L 252.00,32.00 L 251.00,30.50 L 254.00,27.50 L 258.50,28.00 Z" fill="#FBF9F6"/><path d="M 173.00,89.00 L 169.50,91.00 L 168.50,96.00 L 163.00,97.00 L 164.00,103.00 L 159.00,107.00 L 157.00,116.00 L 152.00,119.50 L 151.00,124.50 L 154.50,128.00 L 158.50,122.00 L 160.00,123.00 L 164.50,151.50 L 169.00,154.50 L 176.00,152.50 L 180.00,155.50 L 181.50,160.50 L 190.00,162.00 L 199.50,179.50 L 207.50,180.50 L 205.00,176.50 L 206.50,174.50 L 211.00,180.00 L 215.50,179.50 L 214.50,174.00 L 218.00,176.50 L 219.50,174.00 L 209.00,170.00 L 211.50,167.50 L 204.50,156.00 L 194.50,151.00 L 185.00,151.50 L 189.00,146.50 L 176.50,144.50 L 187.50,133.00 L 188.50,129.00 L 186.00,125.50 L 189.00,126.00 L 193.00,131.50 L 193.50,126.50 L 178.50,111.50 L 177.50,103.00 L 170.00,100.50 L 174.50,95.00 Z" fill="#FBF9F6"/><path d="M 224.00,142.00 L 224.00,151.50 L 230.00,159.00 L 232.00,164.50 L 236.00,169.00 L 236.00,170.50 L 238.00,172.00 L 239.00,175.00 L 244.50,182.50 L 246.50,182.50 L 251.50,180.00 L 254.50,180.50 L 253.50,178.00 L 249.50,176.50 L 251.00,174.50 L 254.00,174.50 L 257.50,178.50 L 261.50,176.50 L 261.50,174.50 L 258.50,172.00 L 259.50,170.00 L 253.50,170.00 L 250.00,171.50 L 248.00,171.00 L 250.50,167.50 L 246.50,163.50 L 240.00,153.00 L 237.00,155.00 L 235.00,155.00 L 232.00,152.50 L 230.50,150.00 L 230.50,147.50 L 232.00,145.50 L 234.50,145.00 L 230.50,140.00 L 228.00,142.00 Z" fill="#FBF9F6"/><path d="M 128.50,148.50 L 125.00,145.50 L 119.50,143.50 L 112.00,147.00 L 107.50,147.00 L 105.00,150.00 L 101.00,148.00 L 96.00,156.00 L 100.00,155.50 L 98.00,158.00 L 92.50,159.50 L 92.50,157.00 L 90.00,156.00 L 88.50,160.00 L 90.00,168.50 L 85.50,175.00 L 88.00,177.00 L 87.00,180.00 L 88.50,180.00 L 87.50,178.50 L 88.50,178.00 L 90.50,179.50 L 90.00,180.50 L 91.50,180.50 L 91.00,182.50 L 92.50,182.50 L 90.50,186.50 L 95.00,184.50 L 94.50,180.00 L 92.00,177.00 L 98.50,171.50 L 102.00,166.50 L 100.00,164.50 L 115.50,160.00 L 115.50,159.00 L 109.00,158.00 L 108.50,156.00 L 110.50,155.00 L 110.00,153.50 L 111.50,153.50 L 111.00,152.50 L 114.00,150.00 L 119.50,149.00 L 121.00,150.50 L 121.00,154.50 L 118.50,157.50 L 119.50,158.50 L 125.50,153.50 Z" fill="#E6C3B1"/><path d="M 236.00,86.00 L 236.50,87.00 L 236.00,88.00 L 237.00,89.50 L 236.50,90.50 L 238.00,91.00 L 239.50,93.00 L 240.50,99.50 L 242.50,104.00 L 244.50,106.00 L 246.00,106.00 L 246.50,107.00 L 251.50,107.00 L 252.50,106.00 L 254.00,106.00 L 256.00,104.00 L 256.00,102.50 L 257.00,102.00 L 257.00,100.00 L 256.00,99.00 L 256.50,98.50 L 258.00,99.00 L 258.00,96.00 L 257.00,95.00 L 257.00,93.50 L 255.50,90.50 L 252.00,87.00 L 251.00,87.00 L 249.50,88.50 L 250.50,91.50 L 250.50,94.00 L 250.00,94.50 L 246.50,88.50 L 245.00,87.00 L 243.00,86.00 Z" fill="#EB7958"/><path d="M 172.50,49.50 L 172.50,52.00 L 174.50,57.50 L 180.50,64.00 L 183.00,61.00 L 182.50,59.00 L 184.00,57.00 L 185.00,57.50 L 186.50,61.50 L 188.00,62.00 L 188.00,64.00 L 186.50,65.50 L 185.50,65.50 L 186.00,67.00 L 190.00,66.50 L 192.50,61.50 L 193.50,62.00 L 193.00,60.50 L 194.00,60.00 L 194.50,53.50 L 193.00,51.00 L 195.00,47.00 L 193.50,48.50 L 192.50,47.50 L 191.50,48.00 L 190.00,47.50 L 190.00,48.50 L 188.50,49.50 L 186.00,47.50 L 184.50,48.00 L 182.50,47.50 L 181.50,46.00 L 179.50,45.50 L 176.50,48.00 L 175.50,50.50 L 174.00,52.00 L 173.00,51.50 L 173.00,49.50 Z" fill="#2B2524"/><path d="M 205.50,31.50 L 204.50,31.00 L 202.50,31.50 L 201.00,33.50 L 200.50,36.50 L 199.50,37.50 L 198.50,36.50 L 197.00,36.50 L 195.50,38.50 L 194.00,38.00 L 195.00,36.00 L 194.00,36.50 L 193.50,35.00 L 191.00,34.50 L 188.50,36.00 L 186.00,36.00 L 187.00,37.00 L 183.00,38.50 L 180.00,40.50 L 181.50,41.50 L 179.00,43.50 L 176.50,43.00 L 174.00,44.00 L 173.00,48.50 L 173.50,51.50 L 175.00,50.50 L 176.00,48.00 L 179.50,45.00 L 181.50,45.50 L 182.50,47.00 L 186.00,47.00 L 188.50,49.00 L 190.00,47.00 L 193.50,47.50 L 199.50,42.50 L 202.00,42.00 L 203.00,37.00 Z" fill="#4A413D"/><path d="M 131.50,135.00 L 127.00,131.00 L 127.50,129.50 L 116.50,121.50 L 115.00,119.00 L 114.50,113.00 L 111.00,111.00 L 109.50,118.00 L 106.00,123.50 L 103.00,126.00 L 98.50,126.00 L 100.50,128.50 L 91.00,137.50 L 91.00,139.00 L 87.50,142.00 L 82.50,143.00 L 80.00,145.00 L 72.00,145.50 L 80.50,146.00 L 86.50,143.50 L 92.00,138.50 L 94.50,138.00 L 97.50,133.00 L 106.00,125.50 L 109.50,125.50 L 112.50,121.00 L 113.50,122.00 L 113.00,126.50 L 109.00,131.50 L 111.50,129.50 L 111.50,131.50 L 120.50,131.00 L 127.50,132.50 L 130.00,135.00 Z" fill="#F3DDCF"/><path d="M 207.50,87.00 L 208.50,94.50 L 212.00,98.00 L 212.50,100.00 L 217.50,98.00 L 220.50,103.00 L 216.50,110.50 L 217.50,110.50 L 218.00,111.50 L 219.00,110.50 L 220.00,111.50 L 220.00,110.00 L 223.50,107.50 L 226.00,107.50 L 229.00,104.50 L 230.00,102.00 L 225.50,99.00 L 224.00,99.50 L 223.00,101.50 L 220.50,101.00 L 221.00,99.00 L 224.00,97.50 L 220.50,97.00 L 220.50,94.50 L 217.00,92.50 L 215.00,90.50 L 216.00,88.00 L 216.50,89.50 L 218.00,89.00 L 220.00,90.50 L 219.50,91.50 L 221.00,91.00 L 221.50,92.50 L 223.00,93.50 L 224.00,93.00 L 224.00,92.00 L 217.50,85.00 L 213.50,85.00 L 209.00,86.50 L 208.50,87.50 Z" fill="#E6C3B1"/><path d="M 101.00,140.00 L 101.00,147.00 L 104.00,149.00 L 106.00,149.00 L 108.50,145.50 L 109.00,146.50 L 112.00,146.50 L 116.00,144.50 L 117.50,144.50 L 119.50,143.00 L 121.00,143.00 L 122.00,144.00 L 125.00,145.00 L 127.50,148.00 L 129.50,147.50 L 129.00,146.50 L 130.50,145.00 L 130.50,143.50 L 128.00,142.50 L 123.50,139.00 L 122.50,139.50 L 122.00,138.00 L 121.00,138.50 L 120.50,138.00 L 120.50,137.00 L 119.00,137.50 L 118.50,136.00 L 114.50,135.50 L 115.00,137.00 L 114.00,138.00 L 110.50,136.50 L 109.50,136.50 L 109.00,138.00 L 107.50,138.00 L 106.50,137.00 L 104.00,137.00 Z" fill="#B79D90"/><path d="M 145.50,118.00 L 145.50,128.50 L 144.50,130.00 L 143.50,129.00 L 141.50,130.50 L 140.50,130.00 L 139.00,131.50 L 138.00,131.00 L 138.50,135.50 L 141.00,141.50 L 146.00,149.50 L 149.00,151.00 L 157.00,153.00 L 157.00,151.50 L 154.00,148.50 L 152.50,145.00 L 151.50,145.50 L 151.00,145.00 L 151.50,143.00 L 150.50,143.50 L 149.50,141.00 L 150.50,140.00 L 149.50,140.50 L 149.00,140.00 L 149.00,138.50 L 150.00,137.50 L 148.50,132.50 L 148.50,124.50 L 148.00,124.50 L 147.50,130.00 L 146.00,124.50 L 146.50,118.00 Z" fill="#A91310"/><path d="M 187.00,87.00 L 187.00,88.50 L 188.00,88.00 L 190.00,88.50 L 190.00,91.00 L 192.00,94.00 L 191.00,96.00 L 197.00,102.50 L 198.00,102.50 L 200.50,99.50 L 202.00,99.50 L 205.00,101.50 L 206.00,103.00 L 206.00,105.00 L 208.50,107.00 L 207.00,108.50 L 208.50,109.50 L 211.00,109.50 L 211.00,107.00 L 213.00,105.50 L 213.00,103.00 L 210.50,101.00 L 210.00,100.00 L 210.50,98.50 L 208.50,97.50 L 207.00,94.50 L 206.00,89.00 L 204.50,87.00 L 203.50,86.50 L 200.50,87.00 L 201.00,89.50 L 202.50,91.50 L 202.50,93.50 L 200.50,95.50 L 197.00,95.00 L 193.50,91.50 L 193.50,89.00 L 194.50,87.50 L 193.00,88.00 L 191.50,87.00 L 190.50,88.00 L 190.00,87.00 Z" fill="#FBF9F6"/><path d="M 74.50,38.00 L 68.50,39.00 L 63.00,42.50 L 60.00,46.00 L 57.00,51.50 L 56.50,54.00 L 57.50,52.00 L 61.50,48.50 L 64.00,51.00 L 64.50,57.00 L 62.00,60.50 L 62.00,62.50 L 61.00,64.00 L 59.00,65.00 L 56.00,62.50 L 57.00,68.00 L 59.00,68.00 L 59.50,67.00 L 61.00,68.00 L 60.50,70.00 L 63.00,76.00 L 65.00,71.50 L 68.50,71.00 L 70.50,72.00 L 68.50,68.00 L 66.50,66.50 L 65.00,51.50 L 66.50,47.00 L 74.50,39.00 Z" fill="#FBF9F6"/><path d="M 66.50,143.00 L 65.50,144.00 L 53.00,142.00 L 48.50,147.50 L 40.50,153.50 L 37.00,157.50 L 35.00,157.00 L 33.00,159.50 L 31.00,160.00 L 27.00,156.50 L 27.00,160.50 L 29.00,161.50 L 32.00,161.50 L 32.50,160.00 L 34.00,160.00 L 36.00,158.50 L 37.00,160.00 L 34.50,163.50 L 37.00,161.50 L 39.50,161.50 L 41.50,162.50 L 42.50,162.00 L 42.50,161.00 L 41.50,161.00 L 40.50,159.00 L 48.00,152.50 L 51.00,151.50 L 51.50,153.50 L 56.00,149.00 L 56.00,148.00 L 55.00,148.00 L 54.00,146.50 L 54.50,144.50 L 58.50,145.50 L 59.00,144.50 L 66.50,144.50 Z" fill="#F3DDCF"/><path d="M 108.00,125.50 L 106.00,126.00 L 103.50,129.00 L 101.00,130.00 L 98.00,133.00 L 94.50,138.50 L 92.00,139.00 L 86.50,144.00 L 82.50,146.00 L 70.00,146.50 L 69.00,145.00 L 59.50,145.00 L 59.50,146.00 L 61.00,146.00 L 61.00,147.50 L 63.50,147.00 L 64.00,148.50 L 66.00,148.00 L 66.50,149.00 L 71.00,150.00 L 81.50,149.50 L 82.00,148.00 L 83.50,148.00 L 84.00,147.00 L 86.00,147.50 L 86.50,146.00 L 87.50,146.50 L 91.00,144.50 L 91.50,143.00 L 92.50,143.50 L 92.50,142.50 L 96.50,138.50 L 98.50,138.50 L 98.00,137.50 L 108.00,127.50 Z" fill="#E6C3B1"/><path d="M 207.50,147.50 L 207.00,148.50 L 213.00,155.00 L 214.00,155.00 L 215.50,157.00 L 216.50,157.00 L 218.00,158.50 L 218.00,159.50 L 220.50,160.50 L 224.00,163.50 L 232.50,173.00 L 233.00,171.50 L 234.00,171.00 L 233.00,168.00 L 226.50,159.50 L 224.00,159.50 L 222.50,161.00 L 218.00,157.00 L 219.00,153.00 L 218.00,148.50 L 218.50,146.50 L 219.50,146.00 L 218.50,144.50 L 219.00,142.50 L 220.00,141.50 L 219.00,142.50 L 218.00,141.50 L 215.00,149.00 L 213.00,149.00 L 211.50,147.00 Z" fill="#E6C3B1"/><path d="M 229.00,122.00 L 228.00,122.00 L 228.00,123.50 L 226.00,124.00 L 222.50,128.00 L 222.00,131.50 L 220.00,133.50 L 218.00,136.50 L 218.00,137.50 L 216.50,139.00 L 217.00,139.50 L 218.00,137.50 L 220.50,138.00 L 219.50,140.50 L 220.50,142.00 L 219.00,144.50 L 220.00,146.00 L 219.00,146.50 L 218.50,148.50 L 219.00,151.50 L 220.50,151.00 L 223.50,151.50 L 223.00,150.50 L 224.00,148.00 L 224.00,144.00 L 222.50,141.00 L 222.50,139.50 L 224.50,137.50 L 226.50,132.50 L 227.50,131.50 L 229.00,131.50 L 229.50,130.50 L 229.00,128.50 L 229.00,124.00 L 229.50,123.00 Z" fill="#F3DDCF"/><path d="M 201.00,44.00 L 200.00,44.00 L 195.00,50.00 L 195.00,51.50 L 196.50,54.00 L 196.00,60.00 L 194.00,63.50 L 194.00,64.50 L 191.50,68.00 L 191.50,69.50 L 193.00,71.00 L 193.50,72.50 L 193.50,75.50 L 195.00,75.50 L 196.50,74.00 L 197.50,67.50 L 199.00,65.00 L 196.50,64.50 L 197.00,55.50 L 199.00,55.00 L 200.00,56.00 L 201.00,60.00 L 202.00,60.50 L 203.50,60.00 L 203.50,58.50 L 202.50,59.50 L 201.50,59.00 L 202.50,56.50 L 202.50,47.00 Z" fill="#FBF9F6"/><path d="M 210.00,42.50 L 209.50,45.50 L 209.00,46.00 L 208.00,45.00 L 206.50,64.50 L 208.00,66.00 L 208.00,73.50 L 207.50,74.00 L 208.00,76.00 L 207.00,77.00 L 207.00,78.50 L 206.00,79.00 L 206.00,80.50 L 211.00,85.00 L 217.50,84.50 L 220.00,86.50 L 219.50,85.00 L 212.50,78.50 L 209.50,69.50 L 210.00,64.50 L 207.50,62.00 L 207.50,59.00 L 209.00,57.50 L 210.00,55.00 L 209.50,52.00 L 210.50,42.50 Z" fill="#F3DDCF"/><path d="M 88.00,160.50 L 87.00,161.00 L 84.50,167.00 L 81.50,169.50 L 80.50,172.00 L 79.00,172.50 L 79.00,177.00 L 80.00,176.50 L 80.50,177.00 L 80.50,178.50 L 82.00,182.00 L 83.50,183.50 L 86.50,183.50 L 87.00,184.50 L 88.50,183.50 L 88.50,182.50 L 86.50,180.00 L 86.00,178.50 L 87.00,177.50 L 87.00,176.50 L 85.00,175.00 L 85.00,174.00 L 89.50,168.50 L 89.50,163.50 Z" fill="#F3DDCF"/><path d="M 245.00,63.00 L 245.00,66.50 L 246.00,68.50 L 251.00,73.00 L 255.00,75.00 L 257.50,74.50 L 261.00,72.50 L 262.00,70.50 L 261.00,71.00 L 260.00,69.00 L 262.50,67.00 L 264.00,68.00 L 265.00,65.50 L 265.00,62.00 L 264.00,61.50 L 263.50,63.00 L 261.50,63.00 L 260.50,64.00 L 259.50,64.00 L 258.50,68.50 L 257.50,69.50 L 256.00,69.50 L 254.00,68.50 L 254.00,65.00 L 251.00,64.50 L 249.00,65.00 L 247.00,66.50 L 245.50,65.50 L 245.50,63.00 L 248.00,60.00 Z" fill="#0E0A09"/><path d="M 162.00,84.50 L 161.50,84.00 L 154.00,84.00 L 150.00,86.00 L 147.00,88.50 L 144.00,94.00 L 145.00,95.00 L 146.00,95.00 L 146.50,96.00 L 152.50,97.00 L 152.50,96.00 L 157.00,89.00 L 161.50,85.50 Z" fill="#E1211C"/><path d="M 273.50,37.00 L 274.00,38.50 L 274.00,48.00 L 276.00,53.00 L 278.50,57.00 L 278.00,62.00 L 281.00,63.00 L 280.50,59.50 L 282.00,54.50 L 283.50,52.50 L 284.50,53.00 L 284.50,55.00 L 283.50,57.00 L 283.50,59.00 L 284.00,59.00 L 286.00,52.50 L 284.50,51.50 L 284.00,49.50 L 282.50,50.00 L 279.50,46.00 L 276.50,44.50 L 276.00,43.00 L 277.00,42.00 L 278.00,42.00 L 278.00,41.00 L 275.50,38.50 L 274.50,38.50 L 274.00,37.00 Z" fill="#2B2524"/><path d="M 168.50,85.00 L 166.50,84.50 L 162.00,87.50 L 157.00,93.50 L 155.50,96.50 L 155.00,99.50 L 153.00,100.00 L 150.00,107.00 L 150.00,111.50 L 151.50,112.00 L 152.00,113.50 L 153.00,113.50 L 154.00,112.50 L 154.00,108.00 L 154.50,107.50 L 154.00,105.00 L 155.00,100.00 L 155.50,99.50 L 157.00,101.00 L 159.00,99.00 L 162.00,92.00 L 164.50,88.50 L 166.50,87.00 L 170.00,86.50 Z" fill="#E1211C"/><path d="M 192.00,115.50 L 198.50,119.50 L 203.00,120.50 L 202.50,117.00 L 204.00,114.00 L 209.50,114.50 L 210.50,113.50 L 205.00,111.50 L 198.00,106.50 L 195.50,105.50 L 195.50,107.00 L 197.00,109.00 L 197.00,111.50 L 193.50,115.00 L 192.00,115.00 Z" fill="#E1211C"/><path d="M 202.50,24.00 L 189.50,33.00 L 176.50,38.50 L 171.50,45.00 L 171.50,54.50 L 175.00,61.00 L 182.50,69.50 L 183.00,68.00 L 185.00,67.00 L 184.00,65.50 L 186.50,65.00 L 187.50,62.50 L 186.00,61.50 L 184.00,57.50 L 183.00,59.00 L 183.00,62.50 L 181.50,63.00 L 181.00,65.00 L 175.00,59.00 L 172.00,52.00 L 173.00,44.00 L 178.00,38.50 L 183.00,36.00 L 190.50,34.00 Z" fill="#0E0A09"/><path d="M 224.50,42.00 L 222.00,44.50 L 220.50,48.00 L 221.50,47.50 L 222.50,48.00 L 222.50,51.50 L 226.00,54.00 L 228.50,54.00 L 230.50,52.00 L 232.00,53.50 L 232.50,51.00 L 232.00,45.50 L 230.50,45.00 L 229.00,47.00 L 227.00,47.00 L 225.50,45.50 L 225.50,43.50 L 227.00,42.50 L 229.50,42.50 L 231.00,44.00 L 231.50,44.00 L 231.50,43.00 L 228.50,41.00 Z" fill="#0E0A09"/><path d="M 149.00,83.00 L 144.50,84.50 L 141.50,87.50 L 138.00,92.50 L 138.00,93.50 L 135.00,99.00 L 135.50,100.50 L 134.50,101.00 L 134.00,103.00 L 134.00,109.50 L 135.00,110.50 L 136.50,110.50 L 137.00,109.50 L 137.00,106.00 L 138.00,104.00 L 138.50,100.50 L 139.50,99.00 L 139.00,96.50 L 139.50,96.00 L 141.00,96.50 L 140.50,94.00 L 144.50,87.50 L 148.00,84.50 L 149.50,84.00 Z" fill="#E1211C"/><path d="M 262.50,28.50 L 263.00,29.50 L 266.50,32.00 L 268.00,36.50 L 271.50,42.00 L 271.50,43.50 L 272.50,45.50 L 273.00,53.50 L 274.50,57.00 L 274.50,59.00 L 277.50,60.00 L 278.00,59.50 L 278.00,57.00 L 275.50,53.00 L 273.50,48.00 L 273.00,36.00 L 271.50,33.00 L 270.50,33.50 L 268.50,30.50 L 267.50,31.00 L 267.00,30.50 L 267.50,29.50 L 267.00,28.50 L 265.50,28.00 L 265.00,29.50 Z" fill="#4A413D"/><path d="M 138.00,116.50 L 137.50,127.50 L 138.00,130.00 L 139.50,130.50 L 140.50,129.50 L 142.50,129.50 L 143.50,128.50 L 145.00,128.50 L 145.00,118.00 L 141.00,118.00 Z" fill="#E1211C"/><path d="M 221.00,185.00 L 220.00,185.50 L 219.50,185.00 L 219.50,182.50 L 216.00,184.00 L 212.50,187.50 L 212.00,185.50 L 213.00,184.00 L 212.00,184.00 L 209.50,187.00 L 208.00,186.00 L 207.50,184.50 L 204.50,184.50 L 200.50,188.50 L 205.50,190.50 L 212.50,190.50 L 218.50,188.00 Z" fill="#0E0A09"/><path d="M 265.00,179.50 L 263.50,179.00 L 259.00,180.50 L 259.00,181.50 L 260.50,181.00 L 261.00,182.50 L 260.00,183.00 L 260.00,185.00 L 259.00,187.50 L 257.00,189.00 L 256.00,188.50 L 256.00,185.50 L 255.00,184.50 L 251.50,184.00 L 248.00,187.00 L 248.50,188.50 L 248.00,190.50 L 254.00,190.50 L 260.00,188.50 L 262.50,187.00 L 265.00,184.50 L 264.00,183.50 L 265.00,182.50 Z" fill="#0E0A09"/><path d="M 283.00,40.50 L 282.50,41.00 L 286.50,46.50 L 286.50,53.50 L 283.50,60.00 L 283.00,57.00 L 284.00,53.00 L 283.00,53.50 L 281.00,59.50 L 281.00,62.00 L 282.50,63.00 L 283.00,64.50 L 283.00,69.50 L 282.00,72.50 L 281.00,72.50 L 280.50,69.00 L 278.50,68.00 L 278.00,74.50 L 279.00,76.00 L 278.00,77.00 L 276.00,77.00 L 272.00,72.50 L 271.00,75.00 L 273.00,75.00 L 276.50,78.00 L 279.50,77.50 L 282.50,73.50 L 283.50,69.50 L 283.50,62.00 L 286.00,57.50 L 287.50,52.50 L 287.00,45.50 Z" fill="#0E0A09"/><path d="M 125.00,89.50 L 124.00,89.00 L 124.00,88.00 L 123.00,88.00 L 122.00,87.00 L 117.00,86.50 L 113.00,88.00 L 111.50,90.00 L 112.50,90.50 L 112.00,92.00 L 112.50,93.50 L 113.50,94.00 L 113.50,95.50 L 114.50,95.50 L 114.50,94.00 L 116.00,93.00 L 119.50,92.50 L 121.00,94.00 L 123.50,93.00 L 125.00,91.50 Z" fill="#4A413D"/><path d="M 250.50,79.50 L 249.50,78.50 L 249.50,76.50 L 248.50,75.50 L 248.00,72.50 L 246.50,72.50 L 247.00,76.50 L 244.50,79.00 L 239.00,80.50 L 236.00,80.00 L 234.50,78.00 L 229.00,76.00 L 225.50,73.00 L 225.50,74.00 L 226.50,74.50 L 227.50,77.00 L 231.50,80.50 L 236.00,81.00 L 237.00,82.50 L 240.00,82.50 L 240.50,83.00 L 244.00,82.50 L 245.00,81.50 L 247.00,81.50 Z" fill="#F3DDCF"/><path d="M 222.00,72.00 L 224.00,81.00 L 225.00,82.00 L 225.00,83.00 L 226.00,84.00 L 226.00,85.00 L 228.50,89.50 L 234.00,95.00 L 238.00,96.50 L 237.50,93.50 L 234.50,94.00 L 232.50,92.00 L 233.50,91.50 L 233.50,90.50 L 229.50,85.50 L 229.00,82.50 L 227.50,82.00 L 228.00,81.00 L 230.00,82.00 L 230.50,81.50 L 223.50,75.00 L 223.50,74.00 Z" fill="#0E0A09"/><path d="M 209.00,96.50 L 209.00,97.50 L 210.00,97.50 L 211.00,98.50 L 211.00,101.00 L 213.50,103.00 L 213.50,105.50 L 211.50,108.00 L 211.50,109.00 L 212.50,109.50 L 212.00,110.50 L 213.50,109.50 L 215.00,110.00 L 217.00,109.50 L 217.00,108.50 L 219.50,104.50 L 219.50,102.50 L 218.50,100.50 L 217.50,100.00 L 217.50,98.50 L 215.00,99.00 L 212.50,100.50 L 211.50,98.00 Z" fill="#F3DDCF"/><path d="M 182.50,79.00 L 181.00,81.00 L 180.50,86.50 L 179.00,87.00 L 178.00,86.00 L 177.00,87.00 L 177.00,93.00 L 178.00,96.00 L 182.00,93.50 L 184.50,93.50 L 184.00,92.50 L 185.00,91.00 L 183.00,89.50 L 183.50,87.00 L 182.50,84.00 Z" fill="#E1211C"/><path d="M 231.00,107.00 L 230.50,107.00 L 227.50,113.00 L 225.50,112.00 L 225.50,113.00 L 221.50,117.00 L 218.00,118.00 L 216.50,121.00 L 217.00,122.00 L 222.00,121.00 L 228.50,116.50 L 231.00,111.00 Z" fill="#A91310"/><path d="M 259.50,41.00 L 256.50,41.00 L 255.00,42.50 L 255.50,43.00 L 257.00,42.00 L 259.00,43.50 L 259.00,45.00 L 257.50,46.50 L 256.00,46.50 L 255.00,45.50 L 254.00,45.50 L 254.00,50.00 L 257.00,53.00 L 260.50,50.50 L 261.00,48.50 L 262.00,47.50 L 263.50,47.50 L 262.50,44.00 Z" fill="#0E0A09"/><path d="M 190.00,84.50 L 190.50,87.50 L 191.50,86.50 L 193.50,87.50 L 197.50,84.50 L 198.50,84.50 L 200.50,86.50 L 202.50,86.00 L 204.50,86.50 L 206.50,89.00 L 207.50,94.50 L 208.50,95.50 L 207.50,92.00 L 207.50,88.50 L 206.50,87.00 L 207.50,86.00 L 206.00,83.50 L 205.50,83.50 L 205.00,85.00 L 202.50,82.00 L 200.50,81.50 L 198.00,83.50 L 197.00,83.00 L 191.50,83.00 L 191.50,84.00 Z" fill="#F3DDCF"/><path d="M 189.50,130.00 L 189.00,130.00 L 188.00,133.00 L 187.00,133.50 L 185.50,136.50 L 181.00,140.50 L 178.00,142.00 L 178.00,143.00 L 177.00,143.50 L 177.50,145.00 L 178.50,145.00 L 177.50,143.50 L 181.00,141.50 L 186.50,141.50 L 188.50,142.50 L 188.50,141.50 L 190.50,138.50 L 190.50,133.00 L 189.00,132.00 Z" fill="#F3DDCF"/><path d="M 120.00,131.50 L 120.50,133.00 L 123.50,134.50 L 123.00,135.50 L 124.50,135.00 L 125.00,136.00 L 126.00,136.00 L 126.50,137.00 L 127.50,137.00 L 128.00,138.00 L 129.00,138.00 L 129.50,139.00 L 130.50,139.00 L 132.50,141.00 L 137.00,143.50 L 138.00,143.50 L 139.00,144.50 L 138.00,143.50 L 138.50,142.00 L 137.00,141.50 L 137.50,139.50 L 136.00,139.00 L 135.50,137.00 L 133.00,137.50 L 127.50,133.00 L 124.50,133.00 Z" fill="#E6C3B1"/><path d="M 267.00,61.50 L 266.50,61.50 L 267.00,66.00 L 263.50,72.00 L 264.00,75.00 L 263.00,77.50 L 265.50,77.50 L 269.50,73.50 L 270.00,71.50 L 269.50,66.00 Z" fill="#FBF9F6"/><path d="M 186.00,95.00 L 182.00,100.00 L 180.00,100.50 L 180.00,102.00 L 183.50,107.00 L 186.50,104.50 L 189.50,100.50 Z" fill="#E1211C"/><path d="M 178.50,160.00 L 180.50,162.00 L 183.00,162.50 L 185.50,164.50 L 189.00,165.00 L 191.00,167.00 L 192.00,169.00 L 192.00,171.00 L 194.50,174.00 L 195.50,173.50 L 196.50,174.00 L 196.00,177.50 L 199.00,179.50 L 199.50,180.50 L 201.00,181.00 L 198.00,178.00 L 197.00,173.00 L 194.50,170.00 L 192.50,165.00 L 190.00,162.50 L 186.00,162.50 L 181.50,161.00 L 180.00,159.50 Z" fill="#F3DDCF"/><path d="M 267.50,37.00 L 269.50,45.00 L 269.50,53.50 L 270.50,56.50 L 270.00,58.50 L 271.00,58.00 L 272.50,60.00 L 273.50,59.50 L 274.50,60.50 L 274.00,57.00 L 272.50,53.50 L 272.00,45.50 L 271.00,43.50 L 271.00,42.00 L 269.50,39.00 Z" fill="#2B2524"/><path d="M 87.00,108.00 L 88.00,109.00 L 86.00,109.50 L 82.00,112.50 L 82.00,113.50 L 83.50,114.50 L 86.50,114.50 L 89.50,117.50 L 92.00,114.50 L 92.00,111.00 L 90.50,109.00 Z" fill="#4A413D"/><path d="M 202.00,131.50 L 204.50,134.00 L 206.00,134.00 L 204.50,132.50 L 204.50,131.50 L 206.00,130.00 L 207.50,130.50 L 207.00,132.50 L 207.50,132.50 L 208.50,130.00 L 211.00,127.50 L 212.50,128.00 L 214.50,127.50 L 215.00,126.00 L 214.50,125.50 L 212.50,126.00 L 208.00,125.50 L 206.50,124.50 L 205.00,124.50 L 202.00,128.00 L 203.00,130.50 Z" fill="#EB7958"/><path d="M 190.50,103.50 L 189.00,105.00 L 188.00,107.50 L 190.00,107.50 L 190.50,109.00 L 191.50,108.50 L 192.50,109.00 L 192.50,110.00 L 191.00,112.00 L 190.00,112.50 L 188.50,112.00 L 189.50,114.00 L 191.50,115.50 L 192.00,114.50 L 193.50,114.50 L 196.50,111.50 L 196.50,109.00 L 195.00,107.00 L 195.00,105.00 L 193.50,106.50 L 192.00,105.50 L 192.50,104.00 L 191.50,104.50 Z" fill="#A91310"/><path d="M 261.00,29.00 L 262.50,31.00 L 266.00,39.00 L 266.50,44.50 L 267.00,45.00 L 267.00,54.00 L 269.50,56.00 L 269.00,45.00 L 266.00,33.00 Z" fill="#0E0A09"/><path d="M 80.00,113.00 L 80.00,113.50 L 81.50,114.00 L 79.00,115.00 L 79.50,116.00 L 79.00,119.00 L 81.00,121.00 L 84.00,121.00 L 89.00,119.00 L 89.00,118.00 L 86.50,115.00 L 82.50,114.50 L 81.50,113.50 L 81.50,112.00 Z" fill="#2B2524"/><path d="M 212.00,139.50 L 209.50,140.50 L 207.00,140.50 L 205.00,142.00 L 201.50,142.50 L 199.00,145.50 L 195.00,146.00 L 195.00,147.00 L 196.50,148.00 L 199.00,148.00 L 203.50,145.50 L 205.50,145.50 L 208.50,143.50 Z" fill="#A91310"/><path d="M 72.00,84.50 L 74.00,86.50 L 77.00,86.50 L 82.00,84.00 L 83.50,84.00 L 83.50,83.50 L 82.00,83.00 L 78.00,80.00 L 77.50,79.00 L 76.00,79.00 L 76.00,80.50 Z" fill="#FBF9F6"/><path d="M 88.50,133.00 L 85.00,133.50 L 82.00,136.00 L 81.00,138.50 L 81.50,140.00 L 82.50,140.50 L 82.50,141.50 L 84.50,141.50 L 85.00,140.00 L 86.00,140.00 L 89.00,137.50 L 89.00,136.00 L 90.00,135.50 L 90.00,134.50 Z" fill="#2B2524"/><path d="M 65.50,74.00 L 66.50,75.00 L 67.00,79.00 L 69.50,79.50 L 70.00,80.50 L 74.00,80.00 L 74.00,78.50 L 75.00,77.50 L 72.50,75.00 L 72.00,73.50 L 71.00,74.50 L 69.50,74.50 L 69.00,73.00 Z" fill="#4A413D"/><path d="M 261.50,62.00 L 256.00,62.00 L 253.50,63.00 L 249.00,63.00 L 247.50,64.00 L 246.00,63.00 L 246.00,65.50 L 247.00,66.00 L 249.00,64.50 L 252.50,64.00 L 254.50,65.00 L 254.50,68.50 L 257.50,69.00 L 258.50,67.50 L 258.50,64.50 L 259.50,63.50 L 260.50,63.50 Z" fill="#2B2524"/><path d="M 153.00,135.00 L 153.00,137.50 L 153.50,138.00 L 153.00,141.50 L 154.50,142.00 L 154.50,143.50 L 156.50,145.50 L 157.00,147.50 L 158.50,148.00 L 158.50,144.00 L 159.50,143.00 L 159.00,142.00 L 159.50,141.00 L 158.50,141.00 L 157.50,139.00 L 158.50,137.50 L 157.50,138.00 L 157.00,137.00 L 154.00,136.50 L 153.50,135.00 Z" fill="#E6C3B1"/><path d="M 261.00,74.00 L 256.00,77.50 L 256.00,79.50 L 258.00,80.00 L 258.50,81.00 L 260.50,81.00 L 261.00,81.50 L 260.50,82.50 L 263.00,82.50 L 267.00,78.50 L 262.50,79.00 L 261.50,78.00 L 261.50,76.50 L 262.50,74.50 Z" fill="#E6C3B1"/><path d="M 227.50,36.00 L 231.00,39.50 L 232.50,38.50 L 234.00,39.50 L 234.50,42.00 L 234.00,42.50 L 232.50,40.50 L 232.00,40.50 L 232.00,41.50 L 235.50,45.00 L 235.00,46.50 L 236.50,46.00 L 236.50,38.00 L 236.00,36.50 L 234.50,35.00 L 231.50,35.00 L 229.50,36.00 Z" fill="#F3DDCF"/><path d="M 210.50,114.50 L 209.50,115.00 L 204.00,114.50 L 203.00,117.00 L 203.00,119.50 L 204.50,120.50 L 202.50,121.00 L 202.50,121.50 L 204.50,122.00 L 205.50,121.00 L 206.00,122.00 L 207.00,122.00 L 209.50,119.00 Z" fill="#A91310"/><path d="M 138.50,109.50 L 138.50,113.50 L 139.50,114.50 L 143.00,115.50 L 146.00,115.50 L 146.50,112.00 L 144.00,111.00 L 145.50,110.50 L 145.50,110.00 L 140.50,109.50 L 140.00,109.00 Z" fill="#7E6B62"/><path d="M 131.00,125.00 L 130.50,127.00 L 129.00,127.50 L 129.00,130.50 L 130.00,129.50 L 130.50,131.00 L 132.00,132.50 L 135.50,134.00 L 136.00,133.50 L 135.50,129.00 L 136.50,128.00 L 135.50,128.50 L 133.50,127.00 L 133.50,126.00 Z" fill="#2B2524"/><path d="M 237.50,177.00 L 237.50,179.00 L 241.00,185.00 L 243.00,187.00 L 246.50,188.50 L 247.00,184.50 L 248.00,183.50 L 244.50,184.00 Z" fill="#E6C3B1"/><path d="M 50.50,152.50 L 47.00,153.50 L 44.50,156.50 L 41.50,158.50 L 42.00,160.50 L 43.00,161.00 L 43.00,162.00 L 42.00,163.00 L 43.50,162.00 L 44.00,162.50 L 43.50,164.00 L 44.00,164.00 L 46.00,160.00 L 47.00,159.50 L 47.00,158.00 L 49.00,156.00 Z" fill="#E6C3B1"/><path d="M 211.50,113.00 L 209.00,121.00 L 210.00,120.00 L 211.00,120.00 L 213.50,123.00 L 213.00,124.00 L 211.00,124.50 L 211.00,125.00 L 212.50,125.00 L 214.00,124.00 L 218.00,128.00 L 216.50,125.50 L 216.50,124.00 L 219.00,123.50 L 219.00,122.00 L 217.00,122.50 L 216.00,121.50 L 218.00,117.50 L 218.00,116.00 L 217.00,116.50 L 216.00,119.00 L 214.00,121.00 L 212.50,121.00 L 211.00,120.00 L 211.00,117.50 L 212.00,115.50 L 212.00,113.00 Z" fill="#5C0C0A"/><path d="M 162.00,151.50 L 162.00,154.50 L 163.50,155.00 L 163.00,156.50 L 164.00,156.50 L 164.50,158.00 L 166.00,159.50 L 167.00,159.00 L 168.00,160.50 L 169.50,160.50 L 170.00,161.50 L 171.50,161.50 L 172.00,162.50 L 174.00,163.50 L 174.00,161.50 L 171.50,161.00 L 169.50,159.50 L 168.00,156.50 L 166.00,155.00 L 166.00,154.00 Z" fill="#E6C3B1"/><path d="M 211.50,32.00 L 209.00,32.00 L 205.50,35.00 L 203.50,40.50 L 205.50,40.00 L 207.00,42.00 L 207.50,39.00 L 211.50,33.50 Z" fill="#0E0A09"/><path d="M 258.00,82.50 L 255.00,81.00 L 254.50,79.00 L 250.00,82.00 L 247.00,83.00 L 247.00,83.50 L 249.00,83.50 L 254.50,87.00 L 255.00,86.00 L 254.50,84.00 L 255.50,83.00 L 258.00,83.00 Z" fill="#0E0A09"/><path d="M 157.00,125.00 L 156.50,127.00 L 155.00,126.50 L 155.00,128.00 L 154.00,129.00 L 154.50,131.50 L 154.00,133.00 L 152.50,134.50 L 153.50,134.50 L 154.00,136.00 L 156.00,136.50 L 156.50,135.50 L 158.00,137.00 L 157.50,135.50 L 157.50,125.00 Z" fill="#F3DDCF"/><path d="M 171.00,115.50 L 171.00,114.50 L 170.00,114.00 L 170.50,113.00 L 166.50,114.00 L 163.00,113.50 L 162.50,114.50 L 161.50,114.50 L 162.50,116.00 L 164.50,116.50 L 164.50,118.50 L 169.00,118.00 Z" fill="#2B2524"/><path d="M 198.50,129.50 L 196.00,129.50 L 195.00,130.50 L 195.00,134.50 L 194.00,137.00 L 194.50,138.50 L 196.50,138.50 L 199.00,137.50 L 198.50,136.50 L 199.00,134.50 L 198.00,134.00 Z" fill="#E6C3B1"/><path d="M 164.00,107.00 L 163.00,108.00 L 163.50,109.50 L 162.00,112.00 L 162.00,114.00 L 163.00,113.00 L 165.50,113.00 L 166.00,113.50 L 168.50,113.00 L 169.50,112.00 L 169.50,110.00 L 168.50,111.00 L 167.00,107.50 Z" fill="#4A413D"/><path d="M 257.50,34.50 L 253.50,35.00 L 253.00,34.00 L 252.00,34.00 L 251.00,38.00 L 251.00,41.00 L 250.00,43.00 L 250.00,45.00 L 250.50,45.00 L 250.50,43.50 L 251.00,43.00 L 251.50,43.50 L 251.50,46.50 L 250.50,47.50 L 251.50,46.50 L 252.50,46.50 L 252.00,43.00 L 255.00,39.00 L 254.00,38.00 L 254.00,36.50 L 256.00,35.00 L 257.50,36.50 Z" fill="#F3DDCF"/><path d="M 188.00,119.00 L 188.00,120.00 L 194.00,126.50 L 194.00,131.50 L 196.00,129.00 L 198.00,129.00 L 191.00,120.00 L 191.00,119.00 L 190.00,120.00 Z" fill="#F3DDCF"/><path d="M 221.00,88.00 L 224.50,92.00 L 225.00,94.50 L 227.00,96.50 L 228.00,96.00 L 231.50,99.50 L 233.50,99.50 L 234.00,98.50 L 235.50,98.00 L 235.50,97.00 L 233.50,97.50 L 233.00,96.50 L 231.50,96.00 L 228.50,93.00 L 227.00,94.00 Z" fill="#F3DDCF"/><path d="M 206.50,65.50 L 205.50,68.00 L 205.00,75.50 L 204.00,76.50 L 204.00,77.50 L 205.50,78.50 L 205.00,79.50 L 206.50,78.50 L 206.50,77.00 L 207.50,76.00 L 207.00,75.00 L 207.50,73.50 L 207.50,66.00 Z" fill="#E6C3B1"/><path d="M 140.50,100.50 L 140.50,102.50 L 141.50,103.00 L 142.00,104.50 L 140.50,105.00 L 140.00,103.50 L 139.50,103.50 L 139.00,105.00 L 140.50,106.50 L 144.00,107.50 L 145.50,107.50 L 146.50,106.50 L 148.00,108.50 L 149.00,104.50 L 147.50,105.50 L 146.50,104.00 L 141.50,103.00 L 141.00,100.50 Z" fill="#2B2524"/><path d="M 177.00,162.00 L 177.00,164.50 L 179.50,164.00 L 180.00,165.50 L 181.50,165.00 L 182.00,166.00 L 183.50,166.50 L 189.00,166.00 L 188.00,165.00 L 185.50,165.00 L 183.00,163.00 L 180.50,162.50 L 179.00,161.00 Z" fill="#E6C3B1"/><path d="M 39.00,163.00 L 37.00,162.50 L 32.50,165.50 L 30.00,165.50 L 30.50,167.50 L 34.00,168.00 L 37.50,166.50 Z" fill="#E6C3B1"/><path d="M 196.00,178.00 L 196.00,179.50 L 197.50,180.50 L 197.00,182.00 L 200.00,186.00 L 201.50,185.50 L 204.50,182.50 L 206.00,182.50 L 206.00,182.00 L 200.50,181.50 L 198.00,179.50 L 197.00,179.50 L 196.50,178.00 Z" fill="#E6C3B1"/><path d="M 275.50,61.50 L 275.00,62.00 L 275.00,67.50 L 274.50,68.00 L 273.00,66.50 L 273.00,68.50 L 276.00,71.00 L 277.00,67.00 L 279.00,66.00 L 280.50,66.50 L 280.50,66.00 L 278.50,65.00 L 276.50,63.00 L 276.50,62.00 Z" fill="#FBF9F6"/><path d="M 61.00,51.50 L 59.50,53.00 L 59.50,55.50 L 58.50,56.50 L 59.00,57.50 L 58.50,61.50 L 60.50,61.50 L 60.50,59.50 L 62.50,57.00 L 62.00,52.00 Z" fill="#2B2524"/><path d="M 95.50,95.00 L 94.50,94.50 L 94.00,95.50 L 92.50,95.00 L 91.00,96.00 L 89.50,95.50 L 86.50,99.00 L 85.00,99.50 L 85.00,100.50 L 90.00,99.00 L 91.50,99.50 L 91.50,98.50 L 93.00,98.00 Z" fill="#2B2524"/><path d="M 220.50,130.00 L 219.00,129.50 L 219.00,130.50 L 216.00,133.00 L 215.00,135.50 L 211.50,138.50 L 211.50,139.00 L 213.00,139.50 L 210.50,142.50 L 213.50,140.50 L 218.50,133.50 L 219.00,131.50 L 220.50,131.00 Z" fill="#5C0C0A"/><path d="M 277.50,40.00 L 278.50,41.00 L 278.50,42.00 L 277.00,42.50 L 277.00,44.50 L 279.50,45.00 L 283.00,49.50 L 283.00,46.00 L 284.00,45.50 L 284.00,44.50 L 281.50,43.50 L 279.50,41.00 L 278.50,41.00 Z" fill="#4A413D"/><path d="M 87.50,87.00 L 87.00,87.00 L 86.50,89.00 L 85.50,88.00 L 82.00,88.00 L 80.00,89.50 L 78.50,89.50 L 78.50,90.50 L 82.00,91.50 L 86.50,91.50 L 87.50,89.50 Z" fill="#2B2524"/><path d="M 122.00,94.50 L 120.50,95.00 L 119.50,93.00 L 115.00,94.00 L 115.00,95.50 L 114.00,96.00 L 114.00,97.50 L 116.00,97.00 L 118.50,97.50 L 119.00,96.00 L 120.50,96.50 Z" fill="#2B2524"/><path d="M 232.00,165.50 L 234.00,170.00 L 236.00,171.00 L 237.00,173.50 L 236.50,176.50 L 238.00,176.50 L 241.00,180.00 L 243.00,181.00 L 241.50,178.00 L 238.50,175.00 L 237.50,172.00 L 235.50,170.50 L 235.50,169.00 Z" fill="#F3DDCF"/><path d="M 201.50,32.00 L 200.00,32.00 L 199.50,31.00 L 198.00,31.00 L 197.00,32.00 L 197.00,34.50 L 195.00,37.00 L 195.00,38.00 L 197.00,36.00 L 200.00,36.50 L 200.50,33.50 Z" fill="#2B2524"/><path d="M 172.50,154.00 L 172.50,157.50 L 174.00,157.50 L 174.50,158.50 L 178.50,158.00 L 178.50,156.50 L 176.50,155.50 L 176.00,154.50 Z" fill="#2B2524"/><path d="M 215.00,113.00 L 213.00,113.00 L 212.00,119.50 L 214.00,119.50 L 216.00,116.50 L 216.00,114.00 Z" fill="#E1211C"/><path d="M 194.50,121.00 L 195.00,122.50 L 199.00,126.50 L 200.00,126.50 L 202.00,123.50 Z" fill="#E1211C"/><path d="M 141.50,96.00 L 141.50,97.50 L 142.50,98.00 L 147.50,98.00 L 148.00,98.50 L 153.00,99.00 L 153.00,98.00 L 151.50,97.00 Z" fill="#EB7958"/><path d="M 190.50,72.00 L 189.00,73.00 L 189.00,74.50 L 188.00,75.50 L 187.00,75.50 L 189.50,79.50 L 190.00,79.50 L 190.00,77.50 L 191.50,76.50 L 191.50,74.00 Z" fill="#2B2524"/><path d="M 102.00,136.50 L 105.00,135.00 L 106.50,135.50 L 110.50,135.00 L 113.00,136.00 L 112.50,134.50 L 113.50,133.50 L 106.00,134.00 L 105.50,132.50 L 105.00,132.50 Z" fill="#0E0A09"/><path d="M 118.50,152.00 L 117.00,151.00 L 117.50,152.00 L 117.00,152.50 L 116.00,152.50 L 113.00,155.00 L 112.00,155.00 L 112.50,157.00 L 114.50,157.00 L 115.00,156.00 L 116.50,156.00 L 117.50,155.00 Z" fill="#2B2524"/><path d="M 143.00,98.50 L 143.00,99.50 L 146.00,101.50 L 145.50,103.00 L 147.00,103.00 L 150.00,100.00 L 149.50,99.00 L 147.50,98.50 Z" fill="#7E6B62"/><path d="M 212.50,31.00 L 210.00,31.00 L 209.50,30.50 L 210.00,29.00 L 207.00,29.00 L 206.00,30.00 L 207.00,31.00 L 206.00,31.50 L 206.00,32.50 L 204.00,35.50 L 203.50,38.00 L 204.00,38.00 L 205.00,35.00 L 208.00,32.00 L 212.50,31.50 Z" fill="#2B2524"/><path d="M 89.50,86.00 L 90.00,90.00 L 91.00,90.50 L 92.50,90.50 L 95.50,88.50 L 95.00,87.50 L 91.50,87.00 Z" fill="#FBF9F6"/><path d="M 160.50,144.00 L 160.00,145.00 L 160.00,149.50 L 159.00,150.50 L 155.50,147.50 L 155.00,148.00 L 159.50,152.00 L 159.00,154.50 L 160.00,154.50 L 161.50,156.50 L 160.50,154.50 L 160.50,148.50 L 161.00,148.00 L 161.00,144.00 Z" fill="#0E0A09"/><path d="M 93.00,176.50 L 93.00,178.50 L 95.00,180.00 L 95.00,181.00 L 95.50,181.00 L 95.00,179.50 L 96.00,178.50 L 98.50,179.50 L 99.00,181.00 L 99.50,181.00 L 99.50,179.00 L 98.50,177.50 L 95.50,177.00 L 94.50,175.50 Z" fill="#F3DDCF"/><path d="M 191.00,101.00 L 189.50,102.00 L 188.50,104.00 L 184.00,108.50 L 182.00,107.00 L 185.50,111.50 L 186.00,111.00 L 185.00,110.00 L 185.00,109.00 L 191.00,103.00 Z" fill="#5C0C0A"/><path d="M 227.00,157.00 L 226.00,158.50 L 228.00,161.50 L 231.50,164.50 L 229.50,159.00 L 228.00,157.00 Z" fill="#F3DDCF"/><path d="M 79.50,177.50 L 79.00,180.50 L 80.00,183.00 L 81.00,183.00 L 81.50,184.00 L 83.00,184.00 L 83.50,184.50 L 83.00,185.50 L 86.00,185.50 L 86.50,184.00 L 83.50,184.00 L 81.50,182.00 L 80.00,177.50 Z" fill="#E6C3B1"/><path d="M 195.00,90.00 L 198.00,93.00 L 200.50,93.50 L 200.00,92.50 L 200.50,91.00 L 199.00,90.50 L 198.00,88.00 L 196.50,88.50 L 196.00,90.00 Z" fill="#2B2524"/><path d="M 193.50,145.00 L 198.00,144.50 L 199.50,143.00 L 198.00,143.00 L 196.00,141.00 L 195.00,141.00 L 193.50,143.00 Z" fill="#0E0A09"/><path d="M 225.00,112.50 L 219.00,114.00 L 218.50,114.50 L 219.00,117.00 L 221.50,116.50 Z" fill="#E1211C"/><path d="M 195.00,119.00 L 195.00,120.00 L 203.50,123.50 L 207.00,124.00 L 207.00,123.00 L 208.00,122.50 L 208.00,121.50 L 207.00,122.50 L 203.50,122.50 Z" fill="#5C0C0A"/><path d="M 219.00,55.00 L 220.00,59.00 L 223.00,60.00 L 226.00,60.00 L 226.00,59.50 L 222.00,59.00 L 221.00,57.50 L 221.50,56.50 L 224.00,58.00 L 225.00,58.00 L 225.00,57.50 L 221.00,55.00 Z" fill="#F3DDCF"/><path d="M 241.50,93.50 L 241.00,94.00 L 241.50,99.50 L 242.50,101.50 L 243.50,101.50 L 244.00,100.00 L 242.50,96.00 L 243.00,94.50 L 242.50,93.50 Z" fill="#E6C3B1"/><path d="M 248.50,73.50 L 249.00,75.50 L 250.00,76.50 L 250.00,78.50 L 253.50,77.50 L 253.50,76.00 L 250.50,74.00 Z" fill="#E6C3B1"/><path d="M 151.00,83.50 L 149.50,85.00 L 148.00,85.50 L 144.00,89.50 L 143.50,90.50 L 144.00,91.50 L 142.50,92.00 L 141.50,95.00 L 143.00,94.50 L 143.00,93.50 L 146.00,88.50 L 148.50,86.00 L 151.50,84.50 Z" fill="#5C0C0A"/><path d="M 231.00,132.00 L 230.50,132.00 L 230.50,133.50 L 229.00,135.50 L 228.50,135.00 L 227.00,135.50 L 227.00,136.50 L 225.00,139.50 L 227.50,139.50 L 228.50,137.00 L 229.50,136.00 L 230.50,136.00 Z" fill="#0E0A09"/><path d="M 185.00,37.00 L 179.00,39.00 L 176.00,42.50 L 179.00,43.00 L 180.50,42.00 L 180.50,41.50 L 179.00,41.00 L 181.00,39.00 L 184.00,38.00 Z" fill="#7E6B62"/><path d="M 149.50,128.00 L 149.50,132.50 L 150.00,134.50 L 150.50,134.50 L 150.50,133.50 L 152.50,132.00 L 152.50,129.00 L 150.50,129.00 Z" fill="#0E0A09"/><path d="M 191.50,36.50 L 190.00,36.50 L 186.00,39.00 L 186.00,40.00 L 188.50,39.50 L 191.50,40.00 L 191.50,39.50 L 190.00,39.00 L 191.50,37.50 Z" fill="#2B2524"/><path d="M 184.00,112.00 L 183.00,113.50 L 188.00,118.50 L 190.00,119.50 L 189.50,117.50 L 188.50,116.50 L 187.50,116.50 L 185.00,114.00 L 185.50,113.00 Z" fill="#E6C3B1"/><path d="M 65.50,82.50 L 65.50,84.00 L 66.50,84.00 L 67.50,86.00 L 70.00,88.50 L 73.50,89.00 L 73.50,88.00 L 71.00,87.00 L 69.00,85.00 L 67.00,84.50 Z" fill="#E6C3B1"/><path d="M 180.50,81.00 L 178.50,82.00 L 177.50,83.50 L 177.00,86.00 L 178.50,85.50 L 179.00,86.50 L 180.00,86.50 Z" fill="#A91310"/><path d="M 161.50,86.50 L 157.00,90.50 L 155.00,93.50 L 153.50,97.50 L 154.50,97.50 L 157.00,92.00 Z" fill="#5C0C0A"/><path d="M 177.00,95.00 L 177.50,98.50 L 178.50,100.50 L 182.00,99.50 L 182.00,99.00 L 179.50,98.50 L 179.50,97.00 L 181.00,95.00 L 178.50,96.50 Z" fill="#A91310"/><path d="M 220.00,155.00 L 222.00,158.50 L 224.50,157.00 L 224.50,155.50 L 221.50,154.50 Z" fill="#0E0A09"/><path d="M 67.00,83.50 L 71.00,86.50 L 73.50,87.50 L 74.00,89.00 L 75.00,89.50 L 75.00,91.00 L 75.50,91.00 L 75.00,87.00 L 74.00,87.00 L 71.50,84.50 Z" fill="#F3DDCF"/><path d="M 261.50,26.50 L 262.50,28.00 L 265.00,29.00 L 265.50,27.50 L 267.00,28.00 L 270.00,31.50 L 268.50,28.50 L 265.50,26.00 Z" fill="#7E6B62"/><path d="M 191.00,68.50 L 190.00,69.00 L 185.50,69.00 L 185.50,70.50 L 186.50,71.00 L 186.50,72.00 L 188.00,72.00 L 190.50,70.00 Z" fill="#F3DDCF"/><path d="M 79.00,105.00 L 78.50,105.00 L 74.00,112.00 L 71.00,119.50 L 71.50,119.50 L 74.50,112.50 Z" fill="#0E0A09"/><path d="M 156.00,101.00 L 155.00,102.00 L 154.50,111.50 L 155.00,111.50 L 155.50,106.50 L 157.00,103.00 L 157.00,102.00 Z" fill="#A91310"/><path d="M 206.00,136.50 L 206.00,137.50 L 207.00,138.00 L 211.00,137.50 L 211.00,136.50 L 209.50,135.50 L 207.00,135.50 Z" fill="#EB7958"/><path d="M 127.50,140.00 L 128.00,141.00 L 132.50,143.50 L 129.50,150.50 L 130.00,150.50 L 132.00,145.50 L 133.50,144.00 L 137.50,146.00 L 137.00,145.00 Z" fill="#0E0A09"/><path d="M 138.50,106.00 L 138.50,108.00 L 141.50,108.00 L 145.00,109.00 L 147.00,108.50 L 146.50,107.00 L 145.50,108.00 L 144.00,108.00 Z" fill="#0E0A09"/><path d="M 58.50,72.50 L 58.00,73.50 L 60.50,78.50 L 63.50,81.00 L 62.50,77.00 L 61.50,77.50 L 59.50,75.50 L 59.00,72.50 Z" fill="#E6C3B1"/><path d="M 203.00,102.00 L 200.00,102.00 L 201.00,107.00 L 203.00,105.00 Z" fill="#2B2524"/><path d="M 148.00,117.50 L 147.00,118.00 L 146.50,120.50 L 147.00,126.50 L 147.50,126.50 L 148.00,124.00 Z" fill="#E1211C"/><path d="M 190.00,145.00 L 193.50,149.00 L 198.50,151.00 L 197.50,149.50 L 195.00,148.50 L 192.50,145.50 Z" fill="#0E0A09"/><path d="M 253.50,180.50 L 251.50,180.50 L 246.50,183.00 L 244.50,183.00 L 244.50,183.50 L 247.00,183.50 L 248.00,182.50 L 248.50,183.50 L 249.50,183.50 L 252.00,181.50 L 253.00,181.50 Z" fill="#F3DDCF"/><path d="M 184.00,94.50 L 182.00,95.00 L 180.00,97.00 L 180.00,98.50 L 182.00,98.50 L 183.50,96.50 Z" fill="#5C0C0A"/><path d="M 234.00,55.00 L 232.50,55.00 L 232.50,56.00 L 231.00,57.50 L 227.00,58.00 L 227.00,58.50 L 230.00,59.00 L 233.50,57.00 Z" fill="#F3DDCF"/><path d="M 207.00,133.50 L 207.00,134.50 L 209.50,134.50 L 211.50,135.50 L 211.50,133.00 L 210.50,133.00 L 209.50,132.00 Z" fill="#A91310"/><path d="M 216.50,182.00 L 214.00,182.00 L 214.50,183.00 L 212.50,185.50 L 212.50,187.00 L 216.50,183.50 Z" fill="#2B2524"/><path d="M 87.00,86.00 L 86.00,87.00 L 81.50,86.50 L 81.00,87.50 L 80.00,86.50 L 79.00,87.50 L 79.00,89.00 L 81.00,88.50 L 82.50,87.00 L 83.00,87.50 L 84.50,87.00 L 86.50,88.50 Z" fill="#4A413D"/><path d="M 171.50,86.00 L 170.50,86.00 L 170.00,87.00 L 168.00,87.00 L 165.50,88.00 L 162.00,93.50 L 163.50,92.50 L 166.50,88.00 L 170.50,87.50 Z" fill="#A91310"/><path d="M 171.00,155.00 L 171.00,158.00 L 172.50,159.50 L 175.50,160.00 L 176.50,158.50 L 174.50,159.00 L 174.00,158.00 L 173.00,158.50 L 172.00,157.50 L 172.00,155.00 Z" fill="#0E0A09"/><path d="M 204.50,64.50 L 204.00,64.50 L 203.50,68.00 L 201.00,73.00 L 200.00,76.50 L 201.00,76.50 L 201.00,75.00 L 203.50,70.50 Z" fill="#0E0A09"/><path d="M 221.50,124.00 L 220.00,124.50 L 220.50,125.50 L 219.50,126.50 L 218.00,125.00 L 219.50,128.50 L 221.50,128.50 L 221.00,127.00 Z" fill="#EB7958"/><path d="M 190.00,108.00 L 188.00,108.00 L 186.50,109.00 L 186.50,110.50 L 188.50,111.50 L 189.50,110.50 L 189.00,109.50 L 190.00,109.00 Z" fill="#E1211C"/><path d="M 226.00,119.00 L 224.00,120.50 L 220.00,122.00 L 220.00,123.00 L 222.50,123.00 L 223.00,124.50 L 223.50,124.50 L 223.00,122.00 Z" fill="#5C0C0A"/><path d="M 99.50,155.50 L 95.50,156.50 L 95.00,158.00 L 94.00,157.00 L 92.50,158.00 L 92.50,159.00 L 96.50,158.00 L 97.50,156.50 L 98.50,157.00 Z" fill="#B79D90"/><path d="M 260.50,181.50 L 259.50,182.00 L 258.00,181.50 L 257.50,182.00 L 257.50,184.50 L 258.50,186.00 L 259.50,185.00 L 259.50,183.00 L 260.50,182.50 Z" fill="#2B2524"/><path d="M 245.00,54.50 L 245.00,55.00 L 247.00,54.50 L 254.00,55.00 L 253.50,53.50 L 248.00,53.50 L 246.50,54.50 Z" fill="#F3DDCF"/><path d="M 220.00,43.00 L 219.50,43.00 L 217.50,46.50 L 216.50,51.00 L 217.50,51.00 L 217.50,50.00 L 218.50,49.00 L 218.00,46.50 L 218.50,46.00 L 219.50,46.50 L 219.00,45.00 L 220.00,44.50 Z" fill="#F3DDCF"/><path d="M 136.50,129.50 L 136.00,129.50 L 136.50,133.50 L 135.50,134.50 L 132.00,133.00 L 134.50,135.50 L 137.00,135.50 Z" fill="#0E0A09"/><path d="M 169.00,132.50 L 169.00,136.50 L 170.50,137.50 L 170.00,136.00 L 171.50,135.50 L 171.00,134.50 L 171.50,133.00 L 170.50,133.50 L 170.00,132.50 Z" fill="#4A413D"/><path d="M 97.00,153.00 L 96.00,154.00 L 94.00,154.50 L 91.50,154.00 L 90.00,154.50 L 89.50,155.50 L 95.00,155.50 Z" fill="#F3DDCF"/><path d="M 89.00,95.00 L 86.50,96.50 L 84.00,96.00 L 85.00,97.00 L 84.00,99.50 L 86.50,98.50 L 88.50,96.50 Z" fill="#0E0A09"/><path d="M 147.00,115.00 L 145.50,117.50 L 148.00,115.50 L 149.00,116.00 L 149.00,124.50 L 149.50,124.50 L 149.50,117.50 L 150.00,116.50 L 149.50,115.00 Z" fill="#5C0C0A"/><path d="M 169.00,88.50 L 166.50,88.50 L 164.00,92.00 L 164.00,93.00 Z" fill="#5C0C0A"/><path d="M 284.00,46.50 L 284.00,49.00 L 285.00,51.50 L 285.50,51.50 L 286.00,48.00 L 285.50,46.50 Z" fill="#4A413D"/><path d="M 270.50,29.50 L 274.00,36.50 L 274.50,36.50 L 275.00,35.00 L 272.00,30.50 Z" fill="#0E0A09"/><path d="M 203.00,138.50 L 203.00,139.00 L 204.50,138.50 L 205.50,139.00 L 204.50,140.00 L 204.50,141.50 L 207.00,140.00 L 210.50,139.50 L 210.50,139.00 L 207.00,139.50 L 205.50,139.00 L 204.50,137.50 Z" fill="#5C0C0A"/><path d="M 231.50,105.50 L 231.50,111.00 L 230.50,113.50 L 232.00,112.00 L 232.50,110.00 L 232.50,106.00 Z" fill="#5C0C0A"/><path d="M 115.00,83.50 L 128.00,83.00 L 128.00,82.50 L 118.00,82.50 L 117.50,83.00 L 115.00,83.00 Z" fill="#0E0A09"/><path d="M 103.00,156.50 L 103.00,157.50 L 105.00,159.50 L 107.00,159.00 L 107.00,157.50 L 105.50,157.50 L 105.00,156.50 Z" fill="#F3DDCF"/><path d="M 198.50,72.50 L 198.00,72.50 L 198.00,75.50 L 195.50,76.50 L 195.00,78.00 L 197.00,77.50 L 199.00,75.50 Z" fill="#7E6B62"/><path d="M 171.00,85.00 L 172.50,87.00 L 173.50,87.50 L 174.50,87.00 L 174.50,84.50 Z" fill="#5C0C0A"/><path d="M 200.00,67.00 L 199.00,70.50 L 200.00,70.50 L 200.50,72.50 L 201.00,72.50 L 202.50,69.00 L 201.00,70.00 L 200.50,69.50 L 200.50,67.00 Z" fill="#2B2524"/><path d="M 209.00,130.00 L 209.00,131.00 L 210.50,132.50 L 214.00,132.00 L 214.00,131.00 L 212.50,132.00 L 212.00,130.50 L 210.50,131.50 L 210.00,131.00 L 210.50,129.00 Z" fill="#E1211C"/><path d="M 262.00,78.00 L 262.50,78.50 L 265.50,78.50 L 268.50,76.50 L 268.50,75.50 L 265.50,78.00 L 263.00,78.00 L 262.50,77.50 L 263.50,75.00 L 263.50,73.50 L 263.00,73.50 Z" fill="#F3DDCF"/><path d="M 203.00,46.00 L 202.50,46.00 L 203.00,47.00 L 203.00,56.50 L 202.00,59.00 L 202.50,59.00 L 203.50,56.50 L 203.50,47.00 Z" fill="#F3DDCF"/><path d="M 98.50,186.50 L 96.00,187.50 L 93.50,187.00 L 92.50,188.00 L 89.50,188.00 L 89.50,188.50 L 96.50,188.00 Z" fill="#0E0A09"/><path d="M 211.00,37.50 L 210.00,37.50 L 209.00,40.00 L 209.50,42.00 L 208.00,43.00 L 208.50,44.50 L 209.50,44.00 L 210.00,40.00 Z" fill="#E6C3B1"/><path d="M 233.00,100.00 L 233.00,100.50 L 235.00,100.00 L 235.50,101.50 L 237.50,101.50 L 237.00,99.50 L 235.50,98.50 Z" fill="#E6C3B1"/><path d="M 203.00,133.00 L 203.00,134.50 L 205.50,137.00 L 206.50,135.00 L 204.50,134.50 Z" fill="#E1211C"/><path d="M 166.00,153.00 L 166.50,155.00 L 169.50,157.50 L 169.50,156.00 L 168.50,154.00 Z" fill="#F3DDCF"/><path d="M 185.00,92.50 L 188.00,98.00 L 190.50,100.00 L 186.00,93.00 Z" fill="#EB7958"/><path d="M 216.50,127.50 L 214.50,128.00 L 213.00,129.50 L 211.50,128.00 L 211.00,129.50 L 213.00,131.00 Z" fill="#A91310"/><path d="M 39.00,169.50 L 37.50,169.50 L 36.50,168.50 L 35.00,169.50 L 31.50,169.50 L 31.50,170.00 L 35.50,170.50 L 36.00,170.00 L 39.00,170.00 Z" fill="#0E0A09"/><path d="M 199.50,130.50 L 202.00,137.00 L 203.00,137.00 L 200.50,131.00 Z" fill="#5C0C0A"/><path d="M 69.50,123.00 L 65.50,127.00 L 67.50,127.50 Z" fill="#0E0A09"/><path d="M 81.00,186.00 L 82.50,187.50 L 88.00,188.50 L 88.00,187.00 L 84.50,187.50 Z" fill="#0E0A09"/><path d="M 26.50,153.50 L 26.00,153.50 L 24.50,157.50 L 25.00,163.50 L 26.00,162.50 L 25.00,161.00 L 25.00,157.50 Z" fill="#0E0A09"/><path d="M 104.00,100.50 L 102.50,100.50 L 101.50,101.50 L 102.00,102.50 L 101.50,103.50 L 102.50,103.00 L 103.50,103.50 Z" fill="#2B2524"/><path d="M 206.50,153.00 L 207.50,155.50 L 209.00,156.00 L 209.50,157.00 L 210.50,157.00 Z" fill="#B79D90"/><path d="M 201.00,64.00 L 201.50,66.00 L 201.00,66.50 L 201.00,69.50 L 201.50,69.50 L 202.50,68.00 L 202.50,66.50 L 201.50,64.00 Z" fill="#4A413D"/><path d="M 208.50,28.00 L 208.50,28.50 L 210.50,29.00 L 210.50,30.50 L 213.00,30.00 L 213.00,29.50 L 211.50,29.00 L 212.00,28.00 Z" fill="#4A413D"/><path d="M 58.50,69.50 L 60.00,75.50 L 61.00,76.00 L 59.50,70.00 Z" fill="#B79D90"/><path d="M 185.50,74.00 L 184.00,75.50 L 184.00,76.50 L 187.00,77.00 L 186.50,75.00 Z" fill="#0E0A09"/><path d="M 210.00,58.00 L 210.50,61.00 L 211.50,60.50 L 212.50,61.50 L 212.00,60.50 L 212.50,59.00 Z" fill="#2B2524"/><path d="M 204.50,107.00 L 205.50,108.00 L 208.00,107.50 L 206.50,105.50 Z" fill="#F3DDCF"/><path d="M 201.50,79.00 L 200.50,79.00 L 199.50,80.00 L 199.00,82.00 L 202.50,80.50 Z" fill="#E6C3B1"/><path d="M 179.50,108.00 L 179.50,109.50 L 180.50,111.00 L 182.50,110.00 L 182.00,108.00 L 181.50,108.00 L 182.00,109.00 L 181.00,110.00 Z" fill="#2B2524"/><path d="M 223.50,18.50 L 217.00,20.50 L 214.00,22.00 L 214.00,22.50 L 223.50,19.00 Z" fill="#0E0A09"/><path d="M 65.50,77.50 L 65.50,79.00 L 66.50,79.50 L 66.50,81.00 L 69.00,81.00 L 69.00,80.00 L 67.00,79.50 L 66.50,78.00 Z" fill="#2B2524"/><path d="M 86.50,157.00 L 86.00,157.00 L 84.50,162.00 L 82.50,165.00 L 84.50,163.00 Z" fill="#0E0A09"/><path d="M 80.50,151.00 L 71.00,151.50 L 71.00,152.00 L 78.50,152.00 L 80.50,151.50 Z" fill="#0E0A09"/><path d="M 54.50,68.50 L 56.50,75.50 L 57.50,76.00 L 55.50,71.00 L 55.50,69.50 Z" fill="#0E0A09"/><path d="M 233.00,151.00 L 235.00,153.00 L 237.50,152.50 L 237.50,151.50 L 235.00,152.00 L 234.50,151.00 Z" fill="#2B2524"/><path d="M 137.00,84.50 L 135.00,84.50 L 135.00,85.50 L 134.00,86.50 L 133.00,86.50 L 133.00,87.50 L 135.00,87.50 L 135.00,86.50 Z" fill="#2B2524"/><path d="M 230.50,83.50 L 231.50,86.50 L 234.00,89.00 L 234.00,88.00 L 233.00,87.50 L 231.50,84.00 Z" fill="#EB7958"/><path d="M 228.00,109.50 L 226.00,110.50 L 224.00,110.00 L 222.50,112.00 L 224.50,111.00 L 227.00,111.00 Z" fill="#0E0A09"/><path d="M 214.50,132.50 L 213.00,132.50 L 212.50,136.00 L 214.50,134.00 Z" fill="#EB7958"/><path d="M 217.50,129.50 L 216.50,129.00 L 216.00,130.00 L 214.50,130.00 L 214.50,131.50 L 216.00,131.50 L 217.50,130.50 Z" fill="#EB7958"/><path d="M 246.50,86.50 L 246.00,87.50 L 249.00,90.50 L 247.50,87.00 Z" fill="#A91310"/><path d="M 120.00,108.00 L 119.50,109.00 L 120.50,108.50 L 121.00,111.00 L 122.00,111.00 L 122.50,110.50 L 122.00,109.00 L 121.00,108.00 Z" fill="#2B2524"/><path d="M 149.50,101.00 L 147.00,103.50 L 147.50,105.00 L 148.00,105.00 Z" fill="#4A413D"/><path d="M 156.50,115.00 L 154.50,117.00 L 153.50,117.00 L 152.00,119.00 L 155.00,117.50 L 156.50,116.00 Z" fill="#F3DDCF"/><path d="M 39.00,142.00 L 37.50,143.00 L 36.50,145.00 L 33.00,147.00 L 33.00,147.50 L 35.50,146.50 Z" fill="#0E0A09"/><path d="M 160.00,102.00 L 158.50,103.00 L 158.00,105.50 L 159.00,105.50 L 159.00,104.50 L 160.00,104.00 Z" fill="#2B2524"/><path d="M 198.50,60.50 L 198.00,62.50 L 201.00,63.50 L 200.00,62.50 L 199.50,60.50 Z" fill="#2B2524"/><path d="M 76.50,178.00 L 77.50,182.50 L 79.50,184.50 L 77.50,181.00 L 77.00,178.00 Z" fill="#0E0A09"/><path d="M 52.00,155.50 L 50.00,157.50 L 48.00,162.00 L 48.50,162.00 Z" fill="#0E0A09"/>
</g>
</svg>